<svg xmlns="http://www.w3.org/2000/svg" width="1440" height="5000" viewBox="0 0 1440 5000" fill="none">
  <title>TerraPedia Utility Pages Low Fidelity v1</title>
  <desc>Remaining utility pages low-fidelity frames: about, auth, profile, writing workspace, and not found.</desc>
  <defs>
    <linearGradient id="warmPage" x1="720" y1="0" x2="720" y2="1100" gradientUnits="userSpaceOnUse">
      <stop stop-color="#F8F1DD"/>
      <stop offset="1" stop-color="#E8DDC8"/>
    </linearGradient>
    <linearGradient id="darkPanel" x1="0" y1="0" x2="1" y2="1">
      <stop stop-color="#18211B"/>
      <stop offset="1" stop-color="#31442B"/>
    </linearGradient>
    <linearGradient id="paperPanel" x1="0" y1="0" x2="1" y2="1">
      <stop stop-color="#FBF3DF"/>
      <stop offset="1" stop-color="#EFE1C4"/>
    </linearGradient>
    <radialGradient id="goldGlow" cx="0" cy="0" r="1" gradientUnits="userSpaceOnUse" gradientTransform="translate(220 150) rotate(90) scale(270)">
      <stop stop-color="#D6B263" stop-opacity="0.18"/>
      <stop offset="1" stop-color="#D6B263" stop-opacity="0"/>
    </radialGradient>
    <filter id="shadow" x="-20%" y="-20%" width="140%" height="150%" color-interpolation-filters="sRGB">
      <feDropShadow dx="0" dy="16" stdDeviation="18" flood-color="#3A3829" flood-opacity="0.14"/>
    </filter>
  </defs>

  <rect width="1440" height="5000" fill="#0F1711"/>

  <g id="about-page">
    <rect width="1440" height="1100" fill="url(#warmPage)"/>
    <rect width="1440" height="1100" fill="url(#goldGlow)"/>
    <rect x="64" y="54" width="1312" height="86" rx="24" fill="#18211B" stroke="#D6B263" stroke-opacity="0.28"/>
    <rect x="96" y="84" width="200" height="18" rx="9" fill="#F3EEDC"/>
    <rect x="1024" y="82" width="78" height="10" rx="5" fill="#F3EEDC" opacity="0.54"/>
    <rect x="1132" y="82" width="78" height="10" rx="5" fill="#F3EEDC" opacity="0.54"/>
    <rect x="1248" y="74" width="92" height="34" rx="10" fill="#D6B263"/>

    <rect x="64" y="180" width="1312" height="300" rx="28" fill="url(#darkPanel)" stroke="#D6B263" stroke-opacity="0.30" filter="url(#shadow)"/>
    <rect x="110" y="230" width="132" height="10" rx="5" fill="#D6B263"/>
    <rect x="110" y="266" width="470" height="52" rx="26" fill="#F3EEDC"/>
    <rect x="110" y="356" width="680" height="10" rx="5" fill="#F3EEDC" opacity="0.48"/>
    <rect x="110" y="384" width="430" height="10" rx="5" fill="#F3EEDC" opacity="0.38"/>
    <rect x="902" y="224" width="310" height="176" rx="24" fill="#FBF3DF" stroke="#C8B895"/>
    <rect x="930" y="252" width="88" height="88" rx="18" fill="#9AC26B"/>
    <rect x="952" y="274" width="88" height="88" rx="18" fill="#D6B263" opacity="0.86"/>
    <rect x="1074" y="266" width="98" height="16" rx="8" fill="#273223"/>
    <rect x="1074" y="310" width="110" height="8" rx="4" fill="#958D7A"/>
    <rect x="1074" y="336" width="82" height="8" rx="4" fill="#958D7A"/>

    <rect x="64" y="524" width="404" height="300" rx="22" fill="url(#paperPanel)" stroke="#C8B895"/>
    <rect x="104" y="566" width="112" height="10" rx="5" fill="#D6B263"/>
    <rect x="104" y="604" width="230" height="24" rx="12" fill="#273223"/>
    <rect x="104" y="666" width="310" height="10" rx="5" fill="#958D7A"/>
    <rect x="104" y="694" width="250" height="10" rx="5" fill="#958D7A"/>
    <rect x="104" y="752" width="120" height="36" rx="10" fill="#D6B263"/>

    <rect x="518" y="524" width="404" height="300" rx="22" fill="url(#paperPanel)" stroke="#C8B895"/>
    <rect x="558" y="566" width="112" height="10" rx="5" fill="#D6B263"/>
    <rect x="558" y="604" width="230" height="24" rx="12" fill="#273223"/>
    <rect x="558" y="666" width="310" height="10" rx="5" fill="#958D7A"/>
    <rect x="558" y="694" width="250" height="10" rx="5" fill="#958D7A"/>
    <rect x="558" y="752" width="120" height="36" rx="10" fill="#D6B263"/>

    <rect x="972" y="524" width="404" height="300" rx="22" fill="url(#paperPanel)" stroke="#C8B895"/>
    <rect x="1012" y="566" width="112" height="10" rx="5" fill="#D6B263"/>
    <rect x="1012" y="604" width="230" height="24" rx="12" fill="#273223"/>
    <rect x="1012" y="666" width="310" height="10" rx="5" fill="#958D7A"/>
    <rect x="1012" y="694" width="250" height="10" rx="5" fill="#958D7A"/>
    <rect x="1012" y="752" width="120" height="36" rx="10" fill="#D6B263"/>

    <rect x="64" y="864" width="1312" height="150" rx="22" fill="#18211B" stroke="#D6B263" stroke-opacity="0.30"/>
    <rect x="104" y="900" width="118" height="9" rx="4.5" fill="#D6B263"/>
    <rect x="104" y="932" width="280" height="24" rx="12" fill="#F3EEDC"/>
    <rect x="460" y="910" width="190" height="52" rx="12" fill="#FFFFFF" fill-opacity="0.06" stroke="#D6B263" stroke-opacity="0.22"/>
    <rect x="700" y="910" width="190" height="52" rx="12" fill="#FFFFFF" fill-opacity="0.06" stroke="#D6B263" stroke-opacity="0.22"/>
    <rect x="940" y="910" width="190" height="52" rx="12" fill="#FFFFFF" fill-opacity="0.06" stroke="#D6B263" stroke-opacity="0.22"/>
  </g>

  <g id="auth-pages" transform="translate(0 1180)">
    <rect width="1440" height="980" fill="url(#warmPage)"/>
    <rect width="1440" height="980" fill="url(#goldGlow)"/>
    <rect x="96" y="90" width="580" height="760" rx="30" fill="url(#darkPanel)" stroke="#D6B263" stroke-opacity="0.32" filter="url(#shadow)"/>
    <rect x="146" y="142" width="84" height="84" rx="18" fill="#9AC26B"/>
    <rect x="168" y="164" width="84" height="84" rx="18" fill="#D6B263" opacity="0.86"/>
    <rect x="146" y="292" width="122" height="10" rx="5" fill="#D6B263"/>
    <rect x="146" y="330" width="340" height="44" rx="22" fill="#F3EEDC"/>
    <rect x="146" y="412" width="410" height="10" rx="5" fill="#F3EEDC" opacity="0.48"/>
    <rect x="146" y="440" width="300" height="10" rx="5" fill="#F3EEDC" opacity="0.38"/>
    <rect x="146" y="520" width="136" height="36" rx="10" fill="#D6B263"/>
    <rect x="306" y="520" width="136" height="36" rx="10" fill="#FFFFFF" fill-opacity="0.08" stroke="#D6B263" stroke-opacity="0.24"/>
    <path d="M146 664 C260 580 402 604 524 520" stroke="#D6B263" stroke-width="2" stroke-dasharray="8 8" opacity="0.42"/>
    <rect x="170" y="638" width="22" height="22" rx="6" fill="#D6B263"/>
    <rect x="330" y="596" width="22" height="22" rx="6" fill="#D6B263"/>
    <rect x="502" y="512" width="22" height="22" rx="6" fill="#D6B263"/>

    <rect x="756" y="90" width="588" height="760" rx="30" fill="url(#paperPanel)" stroke="#C8B895" filter="url(#shadow)"/>
    <rect x="810" y="150" width="120" height="10" rx="5" fill="#D6B263"/>
    <rect x="810" y="186" width="260" height="30" rx="15" fill="#273223"/>
    <rect x="810" y="260" width="440" height="54" rx="14" fill="#FFFFFF" fill-opacity="0.52" stroke="#D0C4AC"/>
    <rect x="834" y="282" width="230" height="10" rx="5" fill="#958D7A"/>
    <rect x="810" y="342" width="440" height="54" rx="14" fill="#FFFFFF" fill-opacity="0.52" stroke="#D0C4AC"/>
    <rect x="834" y="364" width="230" height="10" rx="5" fill="#958D7A"/>
    <rect x="810" y="426" width="440" height="54" rx="14" fill="#FFFFFF" fill-opacity="0.52" stroke="#D0C4AC"/>
    <rect x="834" y="448" width="180" height="10" rx="5" fill="#958D7A"/>
    <rect x="810" y="532" width="440" height="54" rx="14" fill="#6F8F4E"/>
    <rect x="810" y="620" width="205" height="42" rx="12" fill="#EFE2C5" stroke="#C5B493"/>
    <rect x="1045" y="620" width="205" height="42" rx="12" fill="#EFE2C5" stroke="#C5B493"/>
    <rect x="810" y="706" width="330" height="9" rx="4.5" fill="#958D7A"/>
  </g>

  <g id="profile-page" transform="translate(0 2240)">
    <rect width="1440" height="900" fill="url(#warmPage)"/>
    <rect x="64" y="70" width="1312" height="220" rx="28" fill="url(#darkPanel)" stroke="#D6B263" stroke-opacity="0.30" filter="url(#shadow)"/>
    <rect x="112" y="122" width="118" height="118" rx="24" fill="#9AC26B"/>
    <rect x="142" y="152" width="118" height="118" rx="24" fill="#D6B263" opacity="0.82"/>
    <rect x="310" y="130" width="260" height="32" rx="16" fill="#F3EEDC"/>
    <rect x="310" y="194" width="440" height="10" rx="5" fill="#F3EEDC" opacity="0.46"/>
    <rect x="310" y="222" width="310" height="10" rx="5" fill="#F3EEDC" opacity="0.38"/>
    <rect x="1100" y="138" width="140" height="42" rx="12" fill="#D6B263"/>

    <rect x="64" y="336" width="390" height="470" rx="24" fill="url(#paperPanel)" stroke="#C8B895"/>
    <rect x="104" y="382" width="110" height="9" rx="4.5" fill="#D6B263"/>
    <rect x="104" y="414" width="230" height="24" rx="12" fill="#273223"/>
    <rect x="104" y="480" width="286" height="48" rx="12" fill="#18211B" fill-opacity="0.90"/>
    <rect x="128" y="500" width="146" height="8" rx="4" fill="#F3EEDC" opacity="0.58"/>
    <rect x="104" y="552" width="286" height="48" rx="12" fill="#FFFFFF" fill-opacity="0.36" stroke="#D0C4AC"/>
    <rect x="104" y="624" width="286" height="48" rx="12" fill="#FFFFFF" fill-opacity="0.36" stroke="#D0C4AC"/>
    <rect x="104" y="696" width="286" height="48" rx="12" fill="#FFFFFF" fill-opacity="0.36" stroke="#D0C4AC"/>

    <rect x="500" y="336" width="876" height="470" rx="24" fill="#FBF8F0" stroke="#D0C4AC"/>
    <rect x="544" y="382" width="118" height="9" rx="4.5" fill="#D6B263"/>
    <rect x="544" y="414" width="260" height="26" rx="13" fill="#273223"/>
    <rect x="544" y="486" width="360" height="54" rx="14" fill="#FFFFFF" fill-opacity="0.52" stroke="#D0C4AC"/>
    <rect x="936" y="486" width="300" height="54" rx="14" fill="#FFFFFF" fill-opacity="0.52" stroke="#D0C4AC"/>
    <rect x="544" y="576" width="692" height="54" rx="14" fill="#FFFFFF" fill-opacity="0.52" stroke="#D0C4AC"/>
    <rect x="544" y="682" width="150" height="44" rx="12" fill="#6F8F4E"/>
    <rect x="720" y="682" width="150" height="44" rx="12" fill="#EFE2C5" stroke="#C5B493"/>
  </g>

  <g id="writing-workspace" transform="translate(0 3220)">
    <rect width="1440" height="1120" fill="url(#warmPage)"/>
    <rect x="64" y="54" width="1312" height="84" rx="24" fill="#18211B" stroke="#D6B263" stroke-opacity="0.28"/>
    <rect x="96" y="84" width="220" height="18" rx="9" fill="#F3EEDC"/>
    <rect x="1030" y="78" width="92" height="34" rx="10" fill="#EFE2C5" stroke="#D6B263" stroke-opacity="0.22"/>
    <rect x="1142" y="78" width="92" height="34" rx="10" fill="#EFE2C5" stroke="#D6B263" stroke-opacity="0.22"/>
    <rect x="1254" y="78" width="92" height="34" rx="10" fill="#D6B263"/>

    <rect x="64" y="176" width="300" height="830" rx="24" fill="url(#darkPanel)" stroke="#D6B263" stroke-opacity="0.30"/>
    <rect x="104" y="222" width="112" height="9" rx="4.5" fill="#D6B263"/>
    <rect x="104" y="254" width="190" height="24" rx="12" fill="#F3EEDC"/>
    <rect x="104" y="326" width="220" height="52" rx="14" fill="#FFFFFF" fill-opacity="0.06" stroke="#D6B263" stroke-opacity="0.22"/>
    <rect x="104" y="402" width="220" height="52" rx="14" fill="#FFFFFF" fill-opacity="0.06" stroke="#D6B263" stroke-opacity="0.22"/>
    <rect x="104" y="478" width="220" height="52" rx="14" fill="#FFFFFF" fill-opacity="0.06" stroke="#D6B263" stroke-opacity="0.22"/>
    <rect x="104" y="596" width="220" height="180" rx="18" fill="#FBF3DF" stroke="#C8B895"/>

    <rect x="402" y="176" width="632" height="830" rx="24" fill="#FBF8F0" stroke="#D0C4AC"/>
    <rect x="446" y="222" width="118" height="9" rx="4.5" fill="#D6B263"/>
    <rect x="446" y="254" width="340" height="34" rx="17" fill="#273223"/>
    <rect x="446" y="340" width="510" height="54" rx="14" fill="#FFFFFF" fill-opacity="0.52" stroke="#D0C4AC"/>
    <rect x="446" y="432" width="510" height="420" rx="18" fill="#FFFFFF" stroke="#D0C4AC"/>
    <rect x="486" y="476" width="400" height="10" rx="5" fill="#958D7A"/>
    <rect x="486" y="514" width="330" height="10" rx="5" fill="#B4AB98"/>
    <rect x="486" y="570" width="420" height="10" rx="5" fill="#958D7A"/>
    <rect x="486" y="608" width="280" height="10" rx="5" fill="#B4AB98"/>

    <rect x="1072" y="176" width="304" height="830" rx="24" fill="url(#paperPanel)" stroke="#C8B895"/>
    <rect x="1110" y="222" width="100" height="9" rx="4.5" fill="#D6B263"/>
    <rect x="1110" y="254" width="170" height="24" rx="12" fill="#273223"/>
    <rect x="1110" y="326" width="220" height="90" rx="16" fill="#FFFFFF" fill-opacity="0.38" stroke="#D0C4AC"/>
    <rect x="1110" y="444" width="220" height="90" rx="16" fill="#FFFFFF" fill-opacity="0.38" stroke="#D0C4AC"/>
    <rect x="1110" y="562" width="220" height="90" rx="16" fill="#FFFFFF" fill-opacity="0.38" stroke="#D0C4AC"/>
    <rect x="1110" y="730" width="220" height="54" rx="14" fill="#6F8F4E"/>
  </g>

  <g id="not-found-page" transform="translate(0 4380)">
    <rect width="1440" height="620" fill="#0F1711"/>
    <rect x="64" y="64" width="1312" height="492" rx="32" fill="url(#darkPanel)" stroke="#D6B263" stroke-opacity="0.32"/>
    <path d="M280 410 C430 250 600 300 720 210 C850 114 1000 156 1160 250" stroke="#D6B263" stroke-width="2" stroke-dasharray="10 10" opacity="0.42"/>
    <rect x="214" y="156" width="128" height="128" rx="22" fill="#9AC26B"/>
    <rect x="246" y="188" width="128" height="128" rx="22" fill="#D6B263" opacity="0.86"/>
    <rect x="470" y="154" width="140" height="10" rx="5" fill="#D6B263"/>
    <rect x="470" y="196" width="360" height="52" rx="26" fill="#F3EEDC"/>
    <rect x="470" y="292" width="520" height="10" rx="5" fill="#F3EEDC" opacity="0.48"/>
    <rect x="470" y="320" width="330" height="10" rx="5" fill="#F3EEDC" opacity="0.38"/>
    <rect x="470" y="394" width="136" height="42" rx="12" fill="#D6B263"/>
    <rect x="632" y="394" width="136" height="42" rx="12" fill="#FFFFFF" fill-opacity="0.08" stroke="#D6B263" stroke-opacity="0.24"/>
  </g>
</svg>
