<svg xmlns="http://www.w3.org/2000/svg" width="1440" height="1024" viewBox="0 0 1440 1024" fill="none">
  <title>TerraPedia Home Low Fidelity v2.5</title>
  <desc>Low-fidelity homepage hero wireframe. Game codex visual on the left, strong title/search entry on the right, moderate dramatic impact.</desc>

  <defs>
    <linearGradient id="bg" x1="0" y1="0" x2="1440" y2="1024" gradientUnits="userSpaceOnUse">
      <stop stop-color="#09100B"/>
      <stop offset="0.45" stop-color="#172414"/>
      <stop offset="1" stop-color="#2F3621"/>
    </linearGradient>
    <radialGradient id="codexGlow" cx="0" cy="0" r="1" gradientUnits="userSpaceOnUse" gradientTransform="translate(410 445) rotate(90) scale(260)">
      <stop stop-color="#D6B263" stop-opacity="0.38"/>
      <stop offset="0.45" stop-color="#9AC26B" stop-opacity="0.16"/>
      <stop offset="1" stop-color="#9AC26B" stop-opacity="0"/>
    </radialGradient>
    <radialGradient id="moonGlow" cx="0" cy="0" r="1" gradientUnits="userSpaceOnUse" gradientTransform="translate(1130 166) rotate(90) scale(150)">
      <stop stop-color="#D6B263" stop-opacity="0.36"/>
      <stop offset="0.62" stop-color="#D6B263" stop-opacity="0.08"/>
      <stop offset="1" stop-color="#D6B263" stop-opacity="0"/>
    </radialGradient>
    <linearGradient id="book" x1="0" y1="214" x2="0" y2="646" gradientUnits="userSpaceOnUse">
      <stop stop-color="#FBF2D8"/>
      <stop offset="1" stop-color="#D6C194"/>
    </linearGradient>
    <linearGradient id="titleGold" x1="780" y1="278" x2="1312" y2="278" gradientUnits="userSpaceOnUse">
      <stop stop-color="#FFF7D6"/>
      <stop offset="1" stop-color="#D6B263"/>
    </linearGradient>
    <filter id="softShadow" x="-30%" y="-30%" width="160%" height="170%" color-interpolation-filters="sRGB">
      <feDropShadow dx="0" dy="30" stdDeviation="28" flood-color="#000000" flood-opacity="0.34"/>
    </filter>
    <filter id="glow" x="-60%" y="-60%" width="220%" height="220%" color-interpolation-filters="sRGB">
      <feDropShadow dx="0" dy="0" stdDeviation="18" flood-color="#D6B263" flood-opacity="0.46"/>
    </filter>
    <pattern id="pixelGrid" width="28" height="28" patternUnits="userSpaceOnUse">
      <path d="M 28 0 L 0 0 0 28" stroke="#FFFFFF" stroke-opacity="0.055" stroke-width="1"/>
    </pattern>
  </defs>

  <rect width="1440" height="1024" rx="0" fill="#0B120C"/>
  <rect x="40" y="40" width="1360" height="944" rx="24" fill="url(#bg)" stroke="#D5CBB8" stroke-opacity="0.42"/>

  <g id="background-world">
    <rect x="40" y="40" width="1360" height="944" rx="24" fill="url(#moonGlow)"/>
    <circle cx="390" cy="466" r="360" fill="#D6B263" opacity="0.08"/>
    <circle cx="1060" cy="190" r="230" fill="#78A89F" opacity="0.12"/>
    <path d="M40 670 L156 445 L260 514 L412 330 L560 540 L724 410 L878 670 Z" fill="#283820" opacity="0.92"/>
    <path d="M1400 670 L1260 454 L1142 518 L1010 350 L870 540 L704 418 L560 670 Z" fill="#182519" opacity="0.96"/>
    <rect x="40" y="755" width="1360" height="229" fill="#4A3323"/>
    <rect x="40" y="755" width="1360" height="18" fill="#5E7A40"/>
    <rect x="40" y="773" width="1360" height="24" fill="#34472B"/>
    <rect x="40" y="797" width="1360" height="38" fill="#846642"/>
    <rect x="40" y="818" width="1360" height="166" fill="url(#pixelGrid)" opacity="0.72"/>
  </g>

  <g id="top-navigation">
    <rect x="40" y="40" width="1360" height="72" rx="24" fill="#09100B" opacity="0.46"/>
    <line x1="40" y1="112" x2="1400" y2="112" stroke="#D6B263" stroke-opacity="0.18"/>
    <rect x="82" y="62" width="26" height="26" rx="5" fill="#9AC26B"/>
    <rect x="91" y="71" width="26" height="26" rx="5" fill="#D6B263" opacity="0.86"/>
    <rect x="128" y="68" width="150" height="14" rx="7" fill="#F3EEDC"/>
    <rect x="1040" y="70" width="58" height="9" rx="4.5" fill="#F3EEDC" opacity="0.58"/>
    <rect x="1122" y="70" width="58" height="9" rx="4.5" fill="#F3EEDC" opacity="0.58"/>
    <rect x="1204" y="70" width="58" height="9" rx="4.5" fill="#F3EEDC" opacity="0.58"/>
    <rect x="1286" y="70" width="58" height="9" rx="4.5" fill="#F3EEDC" opacity="0.58"/>
  </g>

  <g id="left-codex-visual" filter="url(#softShadow)">
    <circle cx="410" cy="455" r="260" fill="url(#codexGlow)"/>
    <g id="main-codex-book" transform="rotate(-3.5 410 430)">
      <rect x="228" y="214" width="364" height="432" rx="20" fill="url(#book)" stroke="#D6B263" stroke-opacity="0.58" stroke-width="2"/>
      <rect x="246" y="232" width="328" height="396" rx="14" stroke="#5F4E32" stroke-opacity="0.34"/>
      <rect x="405" y="214" width="10" height="432" rx="5" fill="#5F4E32" opacity="0.22"/>
      <rect x="334" y="273" width="152" height="24" rx="12" fill="#5C4329" opacity="0.78"/>
      <rect x="342" y="554" width="136" height="12" rx="6" fill="#8D7650" opacity="0.56"/>
      <rect x="374" y="580" width="72" height="12" rx="6" fill="#8D7650" opacity="0.48"/>
      <rect x="346" y="348" width="126" height="126" rx="16" fill="#9AC26B" filter="url(#glow)"/>
      <rect x="376" y="378" width="126" height="126" rx="16" fill="#D6B263" opacity="0.86"/>
      <rect x="322" y="390" width="126" height="126" rx="16" fill="#78A89F" opacity="0.76"/>
    </g>

    <g id="floating-cards">
      <g transform="rotate(-7 178 256)">
        <rect x="110" y="208" width="136" height="96" rx="10" fill="#FBF8F0" fill-opacity="0.13" stroke="#D6B263" stroke-opacity="0.4"/>
        <rect x="124" y="222" width="30" height="30" rx="5" fill="#CC99FF"/>
        <rect x="124" y="266" width="94" height="8" rx="4" fill="#F3EEDC" opacity="0.72"/>
        <rect x="124" y="282" width="66" height="8" rx="4" fill="#F3EEDC" opacity="0.72"/>
      </g>
      <g transform="rotate(7 624 266)">
        <rect x="556" y="218" width="136" height="96" rx="10" fill="#FBF8F0" fill-opacity="0.13" stroke="#D6B263" stroke-opacity="0.4"/>
        <rect x="570" y="232" width="30" height="30" rx="5" fill="#FFB380"/>
        <rect x="570" y="276" width="94" height="8" rx="4" fill="#F3EEDC" opacity="0.72"/>
        <rect x="570" y="292" width="60" height="8" rx="4" fill="#F3EEDC" opacity="0.72"/>
      </g>
      <g transform="rotate(6 222 638)">
        <rect x="154" y="590" width="136" height="96" rx="10" fill="#FBF8F0" fill-opacity="0.13" stroke="#D6B263" stroke-opacity="0.4"/>
        <rect x="168" y="604" width="30" height="30" rx="5" fill="#78A89F"/>
        <rect x="168" y="648" width="94" height="8" rx="4" fill="#F3EEDC" opacity="0.72"/>
        <rect x="168" y="664" width="72" height="8" rx="4" fill="#F3EEDC" opacity="0.72"/>
      </g>
      <g transform="rotate(-6 604 640)">
        <rect x="536" y="592" width="136" height="96" rx="10" fill="#FBF8F0" fill-opacity="0.13" stroke="#D6B263" stroke-opacity="0.4"/>
        <rect x="550" y="606" width="30" height="30" rx="5" fill="#83F9B8"/>
        <rect x="550" y="650" width="94" height="8" rx="4" fill="#F3EEDC" opacity="0.72"/>
        <rect x="550" y="666" width="64" height="8" rx="4" fill="#F3EEDC" opacity="0.72"/>
      </g>
    </g>

    <rect x="180" y="414" width="10" height="10" fill="#D6B263" filter="url(#glow)"/>
    <rect x="642" y="438" width="10" height="10" fill="#9AC26B" filter="url(#glow)"/>
    <rect x="410" y="688" width="10" height="10" fill="#78A89F" filter="url(#glow)"/>
  </g>

  <g id="right-hero-content">
    <rect x="780" y="234" width="182" height="13" rx="6.5" fill="#D6B263"/>
    <rect x="780" y="282" width="532" height="88" rx="13" fill="url(#titleGold)"/>
    <rect x="780" y="386" width="414" height="64" rx="13" fill="#F4EEDB"/>
    <rect x="780" y="486" width="520" height="12" rx="6" fill="#F3EEDC" opacity="0.65"/>
    <rect x="780" y="516" width="342" height="12" rx="6" fill="#F3EEDC" opacity="0.65"/>

    <g id="primary-search" filter="url(#softShadow)">
      <rect x="780" y="574" width="560" height="64" rx="12" fill="#FBF8F0" stroke="#D6B263" stroke-opacity="0.66"/>
      <circle cx="813" cy="606" r="12" stroke="#6F8F4E" stroke-width="4"/>
      <line x1="822" y1="616" x2="834" y2="628" stroke="#6F8F4E" stroke-width="4" stroke-linecap="round"/>
      <rect x="856" y="600" width="326" height="13" rx="6.5" fill="#BFB39D"/>
      <rect x="1200" y="585" width="118" height="42" rx="8" fill="#6F8F4E"/>
    </g>

    <g id="quick-category-entry">
      <rect x="780" y="662" width="128" height="35" rx="8" fill="#18211B" fill-opacity="0.72" stroke="#D6B263" stroke-opacity="0.34"/>
      <rect x="925" y="662" width="128" height="35" rx="8" fill="#18211B" fill-opacity="0.72" stroke="#D6B263" stroke-opacity="0.34"/>
      <rect x="1070" y="662" width="128" height="35" rx="8" fill="#18211B" fill-opacity="0.72" stroke="#D6B263" stroke-opacity="0.34"/>
      <rect x="1215" y="662" width="128" height="35" rx="8" fill="#18211B" fill-opacity="0.72" stroke="#D6B263" stroke-opacity="0.34"/>
    </g>
  </g>

  <g id="hero-stats">
    <rect x="104" y="900" width="288" height="64" rx="10" fill="#09100B" fill-opacity="0.64" stroke="#D6B263" stroke-opacity="0.26"/>
    <rect x="124" y="916" width="58" height="17" rx="8.5" fill="#D6B263"/>
    <rect x="124" y="944" width="170" height="7" rx="3.5" fill="#F3EEDC" opacity="0.6"/>
    <rect x="416" y="900" width="288" height="64" rx="10" fill="#09100B" fill-opacity="0.64" stroke="#D6B263" stroke-opacity="0.26"/>
    <rect x="436" y="916" width="58" height="17" rx="8.5" fill="#D6B263"/>
    <rect x="436" y="944" width="170" height="7" rx="3.5" fill="#F3EEDC" opacity="0.6"/>
    <rect x="728" y="900" width="288" height="64" rx="10" fill="#09100B" fill-opacity="0.64" stroke="#D6B263" stroke-opacity="0.26"/>
    <rect x="748" y="916" width="58" height="17" rx="8.5" fill="#D6B263"/>
    <rect x="748" y="944" width="170" height="7" rx="3.5" fill="#F3EEDC" opacity="0.6"/>
    <rect x="1040" y="900" width="288" height="64" rx="10" fill="#09100B" fill-opacity="0.64" stroke="#D6B263" stroke-opacity="0.26"/>
    <rect x="1060" y="916" width="58" height="17" rx="8.5" fill="#D6B263"/>
    <rect x="1060" y="944" width="170" height="7" rx="3.5" fill="#F3EEDC" opacity="0.6"/>
  </g>

  <rect x="88" y="974" width="1264" height="10" rx="5" fill="#FBF8F0" opacity="0.92"/>
</svg>
