<svg xmlns="http://www.w3.org/2000/svg" width="1440" height="8400" viewBox="0 0 1440 8400" fill="none">
  <title>TerraPedia Interface Pages Low Fidelity v1</title>
  <desc>Low-fidelity API-driven module frames: search, item aggregate, NPC aggregate, buff relations, specialized lists, and creator workflow.</desc>
  <defs>
    <linearGradient id="ifacePaperBg" x1="720" y1="0" x2="720" y2="1320" gradientUnits="userSpaceOnUse">
      <stop stop-color="#F8F1DD"/>
      <stop offset="1" stop-color="#E7D9BD"/>
    </linearGradient>
    <linearGradient id="ifaceDarkBg" x1="0" y1="0" x2="1440" y2="1280" gradientUnits="userSpaceOnUse">
      <stop stop-color="#0B120C"/>
      <stop offset="0.54" stop-color="#172414"/>
      <stop offset="1" stop-color="#2F3621"/>
    </linearGradient>
    <linearGradient id="ifaceDarkPanel" x1="0" y1="0" x2="1" y2="1">
      <stop stop-color="#18211B"/>
      <stop offset="1" stop-color="#31442B"/>
    </linearGradient>
    <linearGradient id="ifacePaperPanel" x1="0" y1="0" x2="1" y2="1">
      <stop stop-color="#FBF3DF"/>
      <stop offset="1" stop-color="#EFE1C4"/>
    </linearGradient>
    <radialGradient id="ifaceGoldGlow" cx="0" cy="0" r="1" gradientUnits="userSpaceOnUse" gradientTransform="translate(1080 240) rotate(90) scale(360)">
      <stop stop-color="#D6B263" stop-opacity="0.28"/>
      <stop offset="1" stop-color="#D6B263" stop-opacity="0"/>
    </radialGradient>
    <pattern id="ifacePaperGrid" width="34" height="34" patternUnits="userSpaceOnUse">
      <path d="M34 0 L0 0 0 34" stroke="#6E684E" stroke-opacity="0.08" stroke-width="1"/>
    </pattern>
    <pattern id="ifaceRuneGrid" width="46" height="46" patternUnits="userSpaceOnUse">
      <path d="M23 8 V38 M8 23 H38" stroke="#D6B263" stroke-opacity="0.08" stroke-width="1"/>
      <rect x="20" y="20" width="6" height="6" rx="2" fill="#D6B263" opacity="0.14"/>
    </pattern>
    <pattern id="ifaceItemWall" width="48" height="58" patternUnits="userSpaceOnUse">
      <rect x="4" y="4" width="40" height="40" rx="8" fill="#FFFFFF" fill-opacity="0.56" stroke="#D0C4AC"/>
      <rect x="12" y="10" width="24" height="24" rx="5" fill="#8FAE72"/>
      <rect x="8" y="48" width="32" height="4" rx="2" fill="#958D7A" opacity="0.62"/>
    </pattern>
    <filter id="ifaceSoftShadow" x="-20%" y="-20%" width="140%" height="150%" color-interpolation-filters="sRGB">
      <feDropShadow dx="0" dy="18" stdDeviation="20" flood-color="#302B1F" flood-opacity="0.16"/>
    </filter>
    <filter id="ifaceDarkShadow" x="-25%" y="-25%" width="150%" height="160%" color-interpolation-filters="sRGB">
      <feDropShadow dx="0" dy="26" stdDeviation="26" flood-color="#000000" flood-opacity="0.34"/>
    </filter>
    <filter id="ifaceGlow" x="-60%" y="-60%" width="220%" height="220%" color-interpolation-filters="sRGB">
      <feDropShadow dx="0" dy="0" stdDeviation="14" flood-color="#D6B263" flood-opacity="0.34"/>
    </filter>
  </defs>

  <rect width="1440" height="8400" fill="#0F1711"/>

  <g id="iface-nav-template">
    <rect x="64" y="54" width="1312" height="86" rx="24" fill="#18211B" stroke="#D6B263" stroke-opacity="0.28"/>
    <rect x="96" y="82" width="30" height="30" rx="7" fill="#9AC26B"/>
    <rect x="106" y="92" width="30" height="30" rx="7" fill="#D6B263" opacity="0.86"/>
    <rect x="158" y="83" width="184" height="18" rx="9" fill="#F3EEDC"/>
    <rect x="158" y="112" width="292" height="8" rx="4" fill="#F3EEDC" opacity="0.42"/>
    <rect x="806" y="84" width="68" height="10" rx="5" fill="#F3EEDC" opacity="0.56"/>
    <rect x="908" y="84" width="68" height="10" rx="5" fill="#F3EEDC" opacity="0.56"/>
    <rect x="1010" y="84" width="68" height="10" rx="5" fill="#F3EEDC" opacity="0.56"/>
    <rect x="1112" y="84" width="68" height="10" rx="5" fill="#F3EEDC" opacity="0.56"/>
    <rect x="1234" y="76" width="100" height="34" rx="10" fill="#D6B263"/>
  </g>

  <g id="global-search-suggestions">
    <rect x="0" y="0" width="1440" height="1280" fill="url(#ifaceDarkBg)"/>
    <rect x="0" y="0" width="1440" height="1280" fill="url(#ifaceGoldGlow)"/>
    <rect x="0" y="0" width="1440" height="1280" fill="url(#ifaceRuneGrid)" opacity="0.62"/>
    <use href="#iface-nav-template"/>

    <g filter="url(#ifaceDarkShadow)">
      <rect x="86" y="190" width="1268" height="336" rx="34" fill="url(#ifaceDarkPanel)" stroke="#D6B263" stroke-opacity="0.34"/>
      <rect x="132" y="234" width="132" height="10" rx="5" fill="#D6B263"/>
      <rect x="132" y="272" width="500" height="58" rx="22" fill="#F3EEDC"/>
      <rect x="132" y="362" width="642" height="12" rx="6" fill="#F3EEDC" opacity="0.42"/>
      <rect x="132" y="394" width="420" height="12" rx="6" fill="#F3EEDC" opacity="0.30"/>
      <rect x="132" y="446" width="120" height="38" rx="12" fill="#D6B263"/>
      <rect x="272" y="446" width="120" height="38" rx="12" fill="#FFFFFF" fill-opacity="0.08" stroke="#D6B263" stroke-opacity="0.24"/>
      <rect x="412" y="446" width="120" height="38" rx="12" fill="#FFFFFF" fill-opacity="0.08" stroke="#D6B263" stroke-opacity="0.24"/>

      <path d="M806 284 C884 226 1018 222 1104 282 C1192 342 1210 438 1126 478 C1034 524 882 486 814 420 C772 380 766 326 806 284Z" fill="#0B120C" fill-opacity="0.38" stroke="#D6B263" stroke-opacity="0.22"/>
      <path d="M860 360 C930 304 1018 304 1088 360" stroke="#D6B263" stroke-width="8" stroke-linecap="round" opacity="0.78"/>
      <circle cx="904" cy="376" r="26" fill="#8FAE72" stroke="#F3EEDC" stroke-opacity="0.18" stroke-width="5"/>
      <circle cx="1010" cy="342" r="34" fill="#D6B263" stroke="#F3EEDC" stroke-opacity="0.18" stroke-width="5"/>
      <circle cx="1102" cy="396" r="26" fill="#8FAE72" stroke="#F3EEDC" stroke-opacity="0.18" stroke-width="5"/>
      <rect x="858" y="452" width="246" height="44" rx="14" fill="#FBF3DF" stroke="#C8B895"/>
      <rect x="888" y="470" width="154" height="8" rx="4" fill="#273223"/>
      <rect x="1140" y="276" width="132" height="132" rx="24" fill="#FBF3DF" stroke="#C8B895"/>
      <rect x="1172" y="308" width="68" height="10" rx="5" fill="#D6B263"/>
      <rect x="1172" y="340" width="70" height="70" rx="16" fill="#18211B"/>
    </g>

    <rect x="96" y="594" width="1248" height="538" rx="32" fill="url(#ifacePaperPanel)" stroke="#C8B895" filter="url(#ifaceSoftShadow)"/>
    <rect x="140" y="636" width="878" height="70" rx="22" fill="#FBF8F0" stroke="#D6B263" stroke-opacity="0.58"/>
    <circle cx="186" cy="671" r="15" stroke="#6F8F4E" stroke-width="4"/>
    <line x1="197" y1="682" x2="212" y2="697" stroke="#6F8F4E" stroke-width="4" stroke-linecap="round"/>
    <rect x="242" y="666" width="458" height="12" rx="6" fill="#BFB39D"/>
    <rect x="1046" y="648" width="120" height="46" rx="14" fill="#D6B263"/>
    <rect x="1186" y="648" width="94" height="46" rx="14" fill="#273223"/>

    <rect x="140" y="746" width="384" height="326" rx="22" fill="#FFFFFF" stroke="#D0C4AC"/>
    <rect x="172" y="780" width="112" height="10" rx="5" fill="#D6B263"/>
    <rect x="172" y="818" width="304" height="56" rx="16" fill="#18211B"/>
    <rect x="196" y="834" width="36" height="36" rx="8" fill="#8FAE72"/>
    <rect x="252" y="846" width="178" height="8" rx="4" fill="#F3EEDC" opacity="0.54"/>
    <rect x="172" y="892" width="304" height="52" rx="16" fill="#FBF8F0" stroke="#C8B895"/>
    <rect x="196" y="906" width="34" height="34" rx="8" fill="#D6B263" opacity="0.86"/>
    <rect x="252" y="918" width="194" height="8" rx="4" fill="#7E8675"/>
    <rect x="172" y="960" width="304" height="52" rx="16" fill="#FBF8F0" stroke="#C8B895"/>
    <rect x="196" y="974" width="34" height="34" rx="8" fill="#8FAE72"/>
    <rect x="252" y="986" width="170" height="8" rx="4" fill="#7E8675"/>
    <rect x="172" y="1032" width="126" height="18" rx="9" fill="#B4AB98"/>

    <rect x="558" y="746" width="334" height="326" rx="22" fill="#F8F1DD" stroke="#D0C4AC"/>
    <rect x="590" y="780" width="112" height="10" rx="5" fill="#D6B263"/>
    <path d="M626 948 C674 862 724 842 790 786" stroke="#8FAE72" stroke-width="10" stroke-linecap="round"/>
    <path d="M626 948 C710 930 760 948 824 1018" stroke="#8FAE72" stroke-width="10" stroke-linecap="round"/>
    <circle cx="626" cy="948" r="34" fill="#D6B263"/>
    <rect x="732" y="760" width="106" height="58" rx="16" fill="#FFFFFF" stroke="#C8B895"/>
    <rect x="792" y="996" width="106" height="58" rx="16" fill="#FFFFFF" stroke="#C8B895"/>
    <rect x="590" y="1030" width="142" height="18" rx="9" fill="#B4AB98"/>

    <rect x="926" y="746" width="362" height="326" rx="22" fill="url(#ifaceDarkPanel)" stroke="#D6B263" stroke-opacity="0.30"/>
    <rect x="960" y="780" width="112" height="10" rx="5" fill="#D6B263"/>
    <rect x="960" y="820" width="132" height="44" rx="14" fill="#FFFFFF" fill-opacity="0.08" stroke="#D6B263" stroke-opacity="0.18"/>
    <rect x="1112" y="820" width="132" height="44" rx="14" fill="#FFFFFF" fill-opacity="0.08" stroke="#D6B263" stroke-opacity="0.18"/>
    <rect x="960" y="888" width="132" height="44" rx="14" fill="#FFFFFF" fill-opacity="0.08" stroke="#D6B263" stroke-opacity="0.18"/>
    <rect x="1112" y="888" width="132" height="44" rx="14" fill="#FFFFFF" fill-opacity="0.08" stroke="#D6B263" stroke-opacity="0.18"/>
    <rect x="960" y="966" width="284" height="56" rx="16" fill="#0B120C" fill-opacity="0.32" stroke="#D6B263" stroke-opacity="0.20"/>
    <path d="M986 1044 H1220" stroke="#D6B263" stroke-opacity="0.34" stroke-width="4" stroke-dasharray="10 10"/>
  </g>

  <g id="item-aggregate-modules" transform="translate(0 1400)">
    <rect x="0" y="0" width="1440" height="1320" fill="url(#ifacePaperBg)"/>
    <rect x="0" y="0" width="1440" height="1320" fill="url(#ifacePaperGrid)" opacity="0.78"/>
    <use href="#iface-nav-template"/>

    <rect x="64" y="180" width="1312" height="320" rx="30" fill="url(#ifaceDarkPanel)" stroke="#D6B263" stroke-opacity="0.32" filter="url(#ifaceSoftShadow)"/>
    <rect x="108" y="230" width="196" height="196" rx="24" fill="#26341F" stroke="#D6B263" stroke-opacity="0.34"/>
    <rect x="150" y="272" width="112" height="112" rx="18" fill="#D6B263"/>
    <rect x="182" y="304" width="112" height="112" rx="18" fill="#8FAE72" opacity="0.82"/>
    <rect x="352" y="236" width="132" height="10" rx="5" fill="#D6B263"/>
    <rect x="352" y="270" width="388" height="46" rx="23" fill="#F3EEDC"/>
    <rect x="352" y="346" width="470" height="10" rx="5" fill="#F3EEDC" opacity="0.48"/>
    <rect x="352" y="374" width="320" height="10" rx="5" fill="#F3EEDC" opacity="0.36"/>
    <rect x="884" y="230" width="380" height="210" rx="22" fill="#FBF3DF" stroke="#C8B895"/>
    <rect x="916" y="264" width="96" height="28" rx="8" fill="#D6B263"/>
    <rect x="916" y="324" width="278" height="12" rx="6" fill="#273223"/>
    <rect x="916" y="362" width="300" height="8" rx="4" fill="#958D7A"/>
    <rect x="916" y="390" width="230" height="8" rx="4" fill="#B4AB98"/>

    <rect x="64" y="548" width="410" height="580" rx="24" fill="url(#ifacePaperPanel)" stroke="#C8B895" filter="url(#ifaceSoftShadow)"/>
    <rect x="100" y="586" width="118" height="10" rx="5" fill="#D6B263"/>
    <rect x="100" y="626" width="270" height="24" rx="12" fill="#273223"/>
    <rect x="100" y="696" width="314" height="118" rx="18" fill="#FFFFFF" stroke="#D0C4AC"/>
    <rect x="130" y="728" width="72" height="72" rx="12" fill="#8FAE72"/>
    <rect x="226" y="736" width="124" height="12" rx="6" fill="#273223"/>
    <rect x="226" y="770" width="148" height="8" rx="4" fill="#958D7A"/>
    <rect x="100" y="846" width="314" height="118" rx="18" fill="#FFFFFF" stroke="#D0C4AC"/>
    <rect x="100" y="994" width="314" height="72" rx="18" fill="#18211B" fill-opacity="0.08" stroke="#C8B895"/>

    <rect x="514" y="548" width="410" height="580" rx="24" fill="#FBF8F0" stroke="#D0C4AC" filter="url(#ifaceSoftShadow)"/>
    <rect x="550" y="586" width="118" height="10" rx="5" fill="#D6B263"/>
    <rect x="550" y="626" width="270" height="24" rx="12" fill="#273223"/>
    <path d="M600 740 H812 M706 740 V910 M600 910 H812" stroke="#8D7650" stroke-opacity="0.34" stroke-width="5" stroke-linecap="round"/>
    <rect x="664" y="690" width="88" height="88" rx="16" fill="#D6B263"/>
    <rect x="562" y="858" width="88" height="88" rx="16" fill="#8FAE72"/>
    <rect x="766" y="858" width="88" height="88" rx="16" fill="#8FAE72"/>
    <rect x="550" y="1010" width="310" height="44" rx="12" fill="#EFE2C5" stroke="#C5B493"/>

    <rect x="964" y="548" width="412" height="580" rx="24" fill="#18211B" stroke="#D6B263" stroke-opacity="0.30" filter="url(#ifaceSoftShadow)"/>
    <rect x="1000" y="586" width="118" height="10" rx="5" fill="#D6B263"/>
    <rect x="1000" y="626" width="270" height="24" rx="12" fill="#F3EEDC"/>
    <rect x="1000" y="700" width="314" height="84" rx="16" fill="#FFFFFF" fill-opacity="0.07" stroke="#D6B263" stroke-opacity="0.22"/>
    <rect x="1026" y="728" width="190" height="10" rx="5" fill="#F3EEDC" opacity="0.46"/>
    <rect x="1000" y="812" width="314" height="84" rx="16" fill="#FFFFFF" fill-opacity="0.07" stroke="#D6B263" stroke-opacity="0.22"/>
    <rect x="1026" y="840" width="210" height="10" rx="5" fill="#F3EEDC" opacity="0.46"/>
    <rect x="1000" y="924" width="314" height="84" rx="16" fill="#FFFFFF" fill-opacity="0.07" stroke="#D6B263" stroke-opacity="0.22"/>
    <rect x="1026" y="952" width="170" height="10" rx="5" fill="#F3EEDC" opacity="0.46"/>
  </g>

  <g id="npc-aggregate-modules" transform="translate(0 2800)">
    <rect x="0" y="0" width="1440" height="1320" fill="url(#ifacePaperBg)"/>
    <rect x="0" y="0" width="1440" height="420" fill="url(#ifaceDarkBg)"/>
    <use href="#iface-nav-template"/>
    <rect x="64" y="184" width="1312" height="314" rx="30" fill="url(#ifaceDarkPanel)" stroke="#D6B263" stroke-opacity="0.32" filter="url(#ifaceDarkShadow)"/>
    <rect x="112" y="232" width="186" height="186" rx="24" fill="#26341F" stroke="#D6B263" stroke-opacity="0.34"/>
    <rect x="154" y="274" width="102" height="102" rx="18" fill="#8FAE72"/>
    <rect x="344" y="240" width="132" height="10" rx="5" fill="#D6B263"/>
    <rect x="344" y="276" width="410" height="44" rx="22" fill="#F3EEDC"/>
    <rect x="344" y="350" width="520" height="10" rx="5" fill="#F3EEDC" opacity="0.46"/>
    <rect x="344" y="378" width="330" height="10" rx="5" fill="#F3EEDC" opacity="0.36"/>
    <rect x="932" y="238" width="330" height="200" rx="22" fill="#FBF3DF" stroke="#C8B895"/>
    <rect x="964" y="270" width="92" height="28" rx="8" fill="#D6B263"/>
    <rect x="964" y="330" width="230" height="12" rx="6" fill="#273223"/>
    <rect x="964" y="370" width="250" height="8" rx="4" fill="#958D7A"/>

    <rect x="64" y="552" width="410" height="590" rx="24" fill="url(#ifacePaperPanel)" stroke="#C8B895"/>
    <rect x="100" y="590" width="118" height="10" rx="5" fill="#D6B263"/>
    <rect x="100" y="630" width="270" height="24" rx="12" fill="#273223"/>
    <rect x="100" y="700" width="314" height="92" rx="16" fill="#FFFFFF" stroke="#D0C4AC"/>
    <rect x="128" y="728" width="160" height="10" rx="5" fill="#273223"/>
    <rect x="128" y="760" width="220" height="8" rx="4" fill="#958D7A"/>
    <rect x="100" y="826" width="314" height="92" rx="16" fill="#FFFFFF" stroke="#D0C4AC"/>
    <rect x="100" y="952" width="314" height="92" rx="16" fill="#FFFFFF" stroke="#D0C4AC"/>

    <rect x="514" y="552" width="410" height="590" rx="24" fill="#18211B" stroke="#D6B263" stroke-opacity="0.30"/>
    <rect x="550" y="590" width="118" height="10" rx="5" fill="#D6B263"/>
    <rect x="550" y="630" width="270" height="24" rx="12" fill="#F3EEDC"/>
    <rect x="550" y="704" width="314" height="78" rx="16" fill="#FFFFFF" fill-opacity="0.07" stroke="#D6B263" stroke-opacity="0.22"/>
    <rect x="550" y="812" width="314" height="78" rx="16" fill="#FFFFFF" fill-opacity="0.07" stroke="#D6B263" stroke-opacity="0.22"/>
    <rect x="550" y="920" width="314" height="78" rx="16" fill="#FFFFFF" fill-opacity="0.07" stroke="#D6B263" stroke-opacity="0.22"/>

    <rect x="964" y="552" width="412" height="590" rx="24" fill="#FBF8F0" stroke="#D0C4AC"/>
    <rect x="1000" y="590" width="118" height="10" rx="5" fill="#D6B263"/>
    <rect x="1000" y="630" width="270" height="24" rx="12" fill="#273223"/>
    <rect x="1000" y="700" width="314" height="92" rx="16" fill="#FFFFFF" stroke="#D0C4AC"/>
    <rect x="1028" y="728" width="52" height="52" rx="10" fill="#8FAE72"/>
    <rect x="1102" y="740" width="140" height="10" rx="5" fill="#273223"/>
    <rect x="1000" y="826" width="314" height="92" rx="16" fill="#FFFFFF" stroke="#D0C4AC"/>
    <rect x="1000" y="952" width="314" height="92" rx="16" fill="#FFFFFF" stroke="#D0C4AC"/>
  </g>

  <g id="buff-public-detail" transform="translate(0 4200)">
    <rect x="0" y="0" width="1440" height="1320" fill="url(#ifaceDarkBg)"/>
    <rect x="0" y="0" width="1440" height="1320" fill="url(#ifaceRuneGrid)" opacity="0.66"/>
    <use href="#iface-nav-template"/>
    <rect x="80" y="190" width="1280" height="258" rx="30" fill="url(#ifaceDarkPanel)" stroke="#D6B263" stroke-opacity="0.32" filter="url(#ifaceDarkShadow)"/>
    <rect x="126" y="238" width="128" height="128" rx="22" fill="#D6B263"/>
    <rect x="154" y="266" width="78" height="78" rx="16" fill="#8FAE72"/>
    <rect x="306" y="240" width="112" height="10" rx="5" fill="#D6B263"/>
    <rect x="306" y="278" width="390" height="44" rx="22" fill="#F3EEDC"/>
    <rect x="306" y="352" width="520" height="10" rx="5" fill="#F3EEDC" opacity="0.46"/>
    <rect x="910" y="240" width="330" height="146" rx="22" fill="#FBF3DF" stroke="#C8B895"/>
    <rect x="942" y="272" width="92" height="28" rx="8" fill="#D6B263"/>
    <rect x="942" y="330" width="210" height="10" rx="5" fill="#273223"/>
    <rect x="942" y="356" width="142" height="8" rx="4" fill="#958D7A"/>

    <rect x="80" y="508" width="392" height="600" rx="24" fill="url(#ifacePaperPanel)" stroke="#C8B895" filter="url(#ifaceSoftShadow)"/>
    <circle cx="398" cy="552" r="92" fill="#D6B263" opacity="0.12"/>
    <rect x="116" y="548" width="118" height="10" rx="5" fill="#D6B263"/>
    <rect x="116" y="588" width="240" height="24" rx="12" fill="#273223"/>
    <rect x="116" y="650" width="300" height="110" rx="18" fill="#FFFFFF" stroke="#D0C4AC"/>
    <rect x="144" y="684" width="200" height="12" rx="6" fill="#273223"/>
    <rect x="144" y="720" width="228" height="8" rx="4" fill="#958D7A"/>
    <rect x="116" y="800" width="300" height="86" rx="16" fill="#F4E9CF" stroke="#C8B895"/>
    <rect x="144" y="828" width="108" height="10" rx="5" fill="#D6B263"/>
    <rect x="144" y="858" width="176" height="8" rx="4" fill="#958D7A"/>
    <rect x="116" y="924" width="300" height="86" rx="16" fill="#F4E9CF" stroke="#C8B895"/>
    <rect x="144" y="952" width="108" height="10" rx="5" fill="#D6B263"/>
    <rect x="144" y="982" width="176" height="8" rx="4" fill="#958D7A"/>

    <rect x="524" y="508" width="392" height="600" rx="24" fill="#FBF8F0" stroke="#D0C4AC" filter="url(#ifaceSoftShadow)"/>
    <rect x="560" y="548" width="118" height="10" rx="5" fill="#D6B263"/>
    <rect x="560" y="588" width="240" height="24" rx="12" fill="#273223"/>
    <path d="M600 728 C660 650 744 650 812 728" stroke="#8FAE72" stroke-width="16" stroke-linecap="round" opacity="0.86"/>
    <rect x="560" y="764" width="300" height="66" rx="16" fill="#FFFFFF" stroke="#D0C4AC"/>
    <rect x="584" y="788" width="126" height="10" rx="5" fill="#273223"/>
    <rect x="584" y="814" width="184" height="7" rx="3.5" fill="#958D7A"/>
    <rect x="560" y="864" width="300" height="66" rx="16" fill="#FFFFFF" stroke="#D0C4AC"/>
    <rect x="584" y="888" width="126" height="10" rx="5" fill="#273223"/>
    <rect x="584" y="914" width="184" height="7" rx="3.5" fill="#958D7A"/>
    <rect x="560" y="964" width="300" height="66" rx="16" fill="#FFFFFF" stroke="#D0C4AC"/>
    <rect x="584" y="988" width="126" height="10" rx="5" fill="#273223"/>
    <rect x="584" y="1014" width="184" height="7" rx="3.5" fill="#958D7A"/>

    <rect x="968" y="508" width="392" height="600" rx="24" fill="#18211B" stroke="#D6B263" stroke-opacity="0.30" filter="url(#ifaceSoftShadow)"/>
    <rect x="1004" y="548" width="118" height="10" rx="5" fill="#D6B263"/>
    <rect x="1004" y="588" width="240" height="24" rx="12" fill="#F3EEDC"/>
    <rect x="1004" y="660" width="300" height="96" rx="16" fill="#FFFFFF" fill-opacity="0.07" stroke="#D6B263" stroke-opacity="0.22"/>
    <rect x="1030" y="692" width="132" height="10" rx="5" fill="#F3EEDC" opacity="0.54"/>
    <rect x="1030" y="724" width="190" height="8" rx="4" fill="#F3EEDC" opacity="0.36"/>
    <rect x="1004" y="792" width="300" height="96" rx="16" fill="#FFFFFF" fill-opacity="0.07" stroke="#D6B263" stroke-opacity="0.22"/>
    <rect x="1030" y="824" width="132" height="10" rx="5" fill="#F3EEDC" opacity="0.54"/>
    <rect x="1030" y="856" width="190" height="8" rx="4" fill="#F3EEDC" opacity="0.36"/>
    <rect x="1004" y="924" width="300" height="96" rx="16" fill="#D6B263" fill-opacity="0.16" stroke="#D6B263" stroke-opacity="0.28"/>
    <rect x="1030" y="956" width="132" height="10" rx="5" fill="#F3EEDC" opacity="0.62"/>
    <rect x="1030" y="988" width="190" height="8" rx="4" fill="#F3EEDC" opacity="0.40"/>
  </g>

  <g id="specialized-list-pages" transform="translate(0 5600)">
    <rect x="0" y="0" width="1440" height="1320" fill="url(#ifacePaperBg)"/>
    <rect x="0" y="0" width="1440" height="1320" fill="url(#ifacePaperGrid)" opacity="0.76"/>
    <use href="#iface-nav-template"/>
    <rect x="64" y="184" width="1312" height="206" rx="28" fill="url(#ifaceDarkPanel)" stroke="#D6B263" stroke-opacity="0.32" filter="url(#ifaceSoftShadow)"/>
    <rect x="104" y="226" width="132" height="10" rx="5" fill="#D6B263"/>
    <rect x="104" y="260" width="420" height="42" rx="21" fill="#F3EEDC"/>
    <rect x="104" y="326" width="540" height="10" rx="5" fill="#F3EEDC" opacity="0.46"/>
    <rect x="832" y="230" width="120" height="82" rx="18" fill="#0B120C" fill-opacity="0.42" stroke="#D6B263" stroke-opacity="0.24"/>
    <rect x="990" y="230" width="120" height="82" rx="18" fill="#0B120C" fill-opacity="0.42" stroke="#D6B263" stroke-opacity="0.24"/>
    <rect x="1148" y="230" width="120" height="82" rx="18" fill="#0B120C" fill-opacity="0.42" stroke="#D6B263" stroke-opacity="0.24"/>

    <rect x="64" y="446" width="398" height="646" rx="24" fill="url(#ifacePaperPanel)" stroke="#C8B895" filter="url(#ifaceSoftShadow)"/>
    <rect x="100" y="484" width="118" height="10" rx="5" fill="#D6B263"/>
    <rect x="100" y="524" width="240" height="24" rx="12" fill="#273223"/>
    <rect x="100" y="600" width="300" height="330" rx="22" fill="#18211B" stroke="#D6B263" stroke-opacity="0.28"/>
    <circle cx="250" cy="720" r="82" fill="#D6B263" opacity="0.70"/>
    <rect x="130" y="974" width="240" height="54" rx="14" fill="#EFE2C5" stroke="#C5B493"/>

    <rect x="522" y="446" width="398" height="646" rx="24" fill="#FBF8F0" stroke="#D0C4AC" filter="url(#ifaceSoftShadow)"/>
    <rect x="558" y="484" width="118" height="10" rx="5" fill="#D6B263"/>
    <rect x="558" y="524" width="240" height="24" rx="12" fill="#273223"/>
    <rect x="558" y="600" width="300" height="330" rx="22" fill="#FFFFFF" stroke="#D0C4AC"/>
    <path d="M602 780 C690 640 744 640 814 780" stroke="#8FAE72" stroke-width="18" stroke-linecap="round"/>
    <rect x="588" y="974" width="240" height="54" rx="14" fill="#EFE2C5" stroke="#C5B493"/>

    <rect x="980" y="446" width="396" height="646" rx="24" fill="url(#ifacePaperPanel)" stroke="#C8B895" filter="url(#ifaceSoftShadow)"/>
    <rect x="1016" y="484" width="118" height="10" rx="5" fill="#D6B263"/>
    <rect x="1016" y="524" width="240" height="24" rx="12" fill="#273223"/>
    <rect x="1016" y="600" width="300" height="330" rx="22" fill="#FFFFFF" stroke="#D0C4AC"/>
    <rect x="1062" y="650" width="74" height="190" rx="18" fill="#8FAE72"/>
    <rect x="1152" y="630" width="74" height="230" rx="18" fill="#D6B263"/>
    <rect x="1242" y="650" width="74" height="190" rx="18" fill="#8FAE72"/>
    <rect x="1046" y="974" width="240" height="54" rx="14" fill="#EFE2C5" stroke="#C5B493"/>
  </g>

  <g id="creator-review-workflow" transform="translate(0 7000)">
    <rect x="0" y="0" width="1440" height="1400" fill="url(#ifacePaperBg)"/>
    <rect x="0" y="0" width="1440" height="1400" fill="url(#ifacePaperGrid)" opacity="0.70"/>
    <rect x="0" y="0" width="1440" height="160" fill="#0B120C"/>
    <use href="#iface-nav-template"/>
    <rect x="64" y="196" width="1312" height="1030" rx="28" fill="#FBF8F0" stroke="#D0C4AC" filter="url(#ifaceSoftShadow)"/>
    <rect x="64" y="196" width="1312" height="78" rx="28" fill="url(#ifaceDarkPanel)"/>
    <rect x="104" y="226" width="180" height="16" rx="8" fill="#F3EEDC"/>
    <rect x="990" y="216" width="96" height="34" rx="10" fill="#FFFFFF" fill-opacity="0.08" stroke="#D6B263" stroke-opacity="0.28"/>
    <rect x="1106" y="216" width="96" height="34" rx="10" fill="#FFFFFF" fill-opacity="0.08" stroke="#D6B263" stroke-opacity="0.28"/>
    <rect x="1222" y="216" width="96" height="34" rx="10" fill="#D6B263"/>

    <rect x="96" y="314" width="286" height="850" rx="20" fill="url(#ifacePaperPanel)" stroke="#C8B895"/>
    <rect x="126" y="352" width="126" height="10" rx="5" fill="#D6B263"/>
    <rect x="126" y="392" width="198" height="58" rx="14" fill="#18211B"/>
    <rect x="148" y="414" width="118" height="8" rx="4" fill="#F3EEDC" opacity="0.58"/>
    <rect x="126" y="480" width="198" height="58" rx="14" fill="#EFE2C5" stroke="#C5B493"/>
    <rect x="126" y="568" width="198" height="58" rx="14" fill="#EFE2C5" stroke="#C5B493"/>
    <rect x="126" y="688" width="198" height="118" rx="16" fill="#FBF8F0" stroke="#C8B895"/>
    <rect x="148" y="720" width="92" height="10" rx="5" fill="#273223"/>
    <rect x="148" y="754" width="136" height="8" rx="4" fill="#958D7A"/>
    <rect x="126" y="842" width="198" height="118" rx="16" fill="#FBF8F0" stroke="#C8B895"/>

    <rect x="424" y="314" width="586" height="850" rx="20" fill="#FFFFFF" stroke="#D0C4AC"/>
    <rect x="466" y="362" width="382" height="42" rx="16" fill="#273223"/>
    <rect x="466" y="440" width="486" height="12" rx="6" fill="#958D7A"/>
    <rect x="466" y="472" width="392" height="12" rx="6" fill="#B4AB98"/>
    <rect x="466" y="536" width="228" height="22" rx="11" fill="#D6B263"/>
    <rect x="466" y="600" width="492" height="10" rx="5" fill="#273223" opacity="0.74"/>
    <rect x="466" y="636" width="468" height="10" rx="5" fill="#958D7A"/>
    <rect x="466" y="666" width="510" height="10" rx="5" fill="#958D7A"/>
    <rect x="466" y="742" width="492" height="154" rx="18" fill="#F4E9CF" stroke="#C8B895"/>
    <rect x="500" y="780" width="118" height="10" rx="5" fill="#D6B263"/>
    <rect x="500" y="818" width="330" height="10" rx="5" fill="#958D7A"/>
    <rect x="466" y="954" width="492" height="10" rx="5" fill="#958D7A"/>
    <rect x="466" y="984" width="410" height="10" rx="5" fill="#958D7A"/>

    <rect x="1048" y="314" width="296" height="850" rx="20" fill="url(#ifaceDarkPanel)" stroke="#D6B263" stroke-opacity="0.30"/>
    <rect x="1078" y="352" width="112" height="10" rx="5" fill="#D6B263"/>
    <rect x="1078" y="392" width="210" height="54" rx="14" fill="#FFFFFF" fill-opacity="0.12" stroke="#D6B263" stroke-opacity="0.22"/>
    <rect x="1078" y="474" width="210" height="54" rx="14" fill="#FFFFFF" fill-opacity="0.12" stroke="#D6B263" stroke-opacity="0.22"/>
    <path d="M1100 600 H1268" stroke="#D6B263" stroke-opacity="0.34" stroke-width="4" stroke-dasharray="10 10"/>
    <rect x="1078" y="652" width="210" height="92" rx="16" fill="#0B120C" fill-opacity="0.34" stroke="#D6B263" stroke-opacity="0.18"/>
    <rect x="1102" y="684" width="94" height="10" rx="5" fill="#D6B263"/>
    <rect x="1078" y="790" width="210" height="92" rx="16" fill="#0B120C" fill-opacity="0.34" stroke="#D6B263" stroke-opacity="0.18"/>
    <rect x="1102" y="822" width="94" height="10" rx="5" fill="#D6B263"/>
    <rect x="1078" y="932" width="210" height="92" rx="16" fill="#D6B263" fill-opacity="0.16" stroke="#D6B263" stroke-opacity="0.28"/>
  </g>
</svg>
