<svg xmlns="http://www.w3.org/2000/svg" width="1440" height="4300" viewBox="0 0 1440 4300" fill="none">
  <title>TerraPedia Public Pages Low Fidelity v1</title>
  <desc>Remaining public frontend low-fidelity frames: entity list, entity detail, and article ledger.</desc>
  <defs>
    <linearGradient id="pageBg" x1="720" y1="0" x2="720" y2="1300" gradientUnits="userSpaceOnUse">
      <stop stop-color="#F8F1DD"/>
      <stop offset="1" stop-color="#E8DDC8"/>
    </linearGradient>
    <linearGradient id="darkPanel" x1="0" y1="0" x2="1" y2="1">
      <stop stop-color="#18211B"/>
      <stop offset="1" stop-color="#31442B"/>
    </linearGradient>
    <linearGradient id="paperPanel" x1="0" y1="0" x2="1" y2="1">
      <stop stop-color="#FBF3DF"/>
      <stop offset="1" stop-color="#EFE1C4"/>
    </linearGradient>
    <radialGradient id="softGold" cx="0" cy="0" r="1" gradientUnits="userSpaceOnUse" gradientTransform="translate(220 140) rotate(90) scale(260)">
      <stop stop-color="#D6B263" stop-opacity="0.18"/>
      <stop offset="1" stop-color="#D6B263" stop-opacity="0"/>
    </radialGradient>
    <pattern id="itemWallTile" width="48" height="58" patternUnits="userSpaceOnUse">
      <rect x="4" y="4" width="40" height="40" rx="8" fill="#FFFFFF" fill-opacity="0.64" stroke="#D0C4AC"/>
      <rect x="12" y="10" width="24" height="24" rx="5" fill="#8FAE72"/>
      <rect x="8" y="48" width="32" height="4" rx="2" fill="#958D7A" opacity="0.66"/>
    </pattern>
    <pattern id="densePaperRule" width="36" height="36" patternUnits="userSpaceOnUse">
      <path d="M 36 0 L 0 0 0 36" stroke="#6E684E" stroke-opacity="0.08" stroke-width="1"/>
    </pattern>
    <filter id="softShadow" x="-20%" y="-20%" width="140%" height="150%" color-interpolation-filters="sRGB">
      <feDropShadow dx="0" dy="16" stdDeviation="18" flood-color="#3A3829" flood-opacity="0.14"/>
    </filter>
  </defs>

  <rect width="1440" height="4300" fill="#0F1711"/>

  <g id="entity-list-page">
    <rect x="0" y="0" width="1440" height="1320" fill="url(#pageBg)"/>
    <rect x="0" y="0" width="1440" height="1320" fill="url(#softGold)"/>

    <rect x="64" y="54" width="1312" height="88" rx="24" fill="#18211B" stroke="#D6B263" stroke-opacity="0.28"/>
    <rect x="96" y="82" width="32" height="32" rx="7" fill="#9AC26B"/>
    <rect x="106" y="92" width="32" height="32" rx="7" fill="#D6B263" opacity="0.86"/>
    <rect x="160" y="84" width="190" height="18" rx="9" fill="#F3EEDC"/>
    <rect x="160" y="114" width="300" height="8" rx="4" fill="#F3EEDC" opacity="0.42"/>
    <rect x="824" y="84" width="74" height="10" rx="5" fill="#F3EEDC" opacity="0.54"/>
    <rect x="926" y="84" width="74" height="10" rx="5" fill="#F3EEDC" opacity="0.54"/>
    <rect x="1028" y="84" width="74" height="10" rx="5" fill="#F3EEDC" opacity="0.54"/>
    <rect x="1130" y="84" width="74" height="10" rx="5" fill="#F3EEDC" opacity="0.54"/>
    <rect x="1240" y="76" width="96" height="34" rx="10" fill="#D6B263"/>

    <rect x="64" y="178" width="1312" height="196" rx="26" fill="url(#darkPanel)" stroke="#D6B263" stroke-opacity="0.30" filter="url(#softShadow)"/>
    <rect x="104" y="218" width="132" height="10" rx="5" fill="#D6B263"/>
    <rect x="104" y="252" width="410" height="42" rx="21" fill="#F3EEDC"/>
    <rect x="104" y="318" width="520" height="10" rx="5" fill="#F3EEDC" opacity="0.46"/>
    <rect x="696" y="224" width="484" height="56" rx="14" fill="#FBF8F0" stroke="#D6B263" stroke-opacity="0.54"/>
    <circle cx="734" cy="252" r="13" stroke="#6F8F4E" stroke-width="4"/>
    <line x1="744" y1="262" x2="756" y2="274" stroke="#6F8F4E" stroke-width="4" stroke-linecap="round"/>
    <rect x="776" y="246" width="250" height="10" rx="5" fill="#BFB39D"/>
    <rect x="1090" y="236" width="66" height="34" rx="9" fill="#6F8F4E"/>
    <rect x="696" y="310" width="96" height="34" rx="9" fill="#D6B263"/>
    <rect x="806" y="310" width="96" height="34" rx="9" fill="#FFFFFF" fill-opacity="0.08" stroke="#D6B263" stroke-opacity="0.24"/>
    <rect x="916" y="310" width="96" height="34" rx="9" fill="#FFFFFF" fill-opacity="0.08" stroke="#D6B263" stroke-opacity="0.24"/>
    <rect x="1026" y="310" width="96" height="34" rx="9" fill="#FFFFFF" fill-opacity="0.08" stroke="#D6B263" stroke-opacity="0.24"/>
    <rect x="1218" y="224" width="96" height="98" rx="18" fill="#0B120C" fill-opacity="0.42" stroke="#D6B263" stroke-opacity="0.24"/>
    <rect x="1242" y="246" width="48" height="22" rx="11" fill="#D6B263"/>
    <rect x="1242" y="286" width="46" height="8" rx="4" fill="#F3EEDC" opacity="0.42"/>

    <rect x="64" y="414" width="248" height="786" rx="22" fill="url(#paperPanel)" stroke="#C8B895"/>
    <rect x="94" y="452" width="112" height="10" rx="5" fill="#D6B263"/>
    <rect x="94" y="486" width="156" height="22" rx="11" fill="#273223"/>
    <rect x="94" y="538" width="186" height="38" rx="11" fill="#18211B" fill-opacity="0.90"/>
    <rect x="116" y="553" width="112" height="8" rx="4" fill="#F3EEDC" opacity="0.58"/>
    <rect x="94" y="596" width="186" height="38" rx="11" fill="#FFFFFF" fill-opacity="0.34" stroke="#D0C4AC"/>
    <rect x="116" y="611" width="132" height="8" rx="4" fill="#7E8675"/>
    <rect x="94" y="654" width="186" height="38" rx="11" fill="#FFFFFF" fill-opacity="0.34" stroke="#D0C4AC"/>
    <rect x="116" y="669" width="120" height="8" rx="4" fill="#7E8675"/>
    <rect x="94" y="712" width="186" height="38" rx="11" fill="#FFFFFF" fill-opacity="0.34" stroke="#D0C4AC"/>
    <rect x="116" y="727" width="140" height="8" rx="4" fill="#7E8675"/>
    <line x1="104" y1="794" x2="272" y2="794" stroke="#C8B895" stroke-dasharray="6 6"/>
    <rect x="94" y="832" width="176" height="10" rx="5" fill="#958D7A"/>
    <rect x="94" y="868" width="186" height="30" rx="9" fill="#EFE2C5" stroke="#C5B493"/>
    <rect x="94" y="914" width="186" height="30" rx="9" fill="#EFE2C5" stroke="#C5B493"/>
    <rect x="94" y="960" width="186" height="30" rx="9" fill="#EFE2C5" stroke="#C5B493"/>
    <rect x="94" y="1034" width="64" height="64" rx="12" fill="#D6B263" opacity="0.86"/>
    <rect x="172" y="1034" width="64" height="64" rx="12" fill="#8FAE72"/>
    <rect x="94" y="1126" width="168" height="10" rx="5" fill="#958D7A"/>

    <rect x="342" y="414" width="1034" height="786" rx="22" fill="#FBF8F0" fill-opacity="0.76" stroke="#D0C4AC"/>
    <rect x="372" y="446" width="184" height="24" rx="12" fill="#273223"/>
    <rect x="372" y="496" width="426" height="10" rx="5" fill="#958D7A"/>
    <rect x="1038" y="442" width="94" height="34" rx="10" fill="#EFE2C5" stroke="#C5B493"/>
    <rect x="1148" y="442" width="94" height="34" rx="10" fill="#EFE2C5" stroke="#C5B493"/>
    <rect x="1258" y="442" width="78" height="34" rx="10" fill="#D6B263"/>

    <g id="entity-density-wall">
      <rect x="372" y="532" width="970" height="526" rx="18" fill="#F8F1DD" stroke="#C8B895"/>
      <rect x="392" y="552" width="650" height="486" fill="url(#itemWallTile)"/>
      <rect x="392" y="552" width="650" height="486" rx="10" fill="none" stroke="#C8B895"/>
      <rect x="574" y="670" width="48" height="58" rx="10" fill="#18211B" fill-opacity="0.92" stroke="#D6B263" stroke-width="2"/>
      <rect x="586" y="682" width="24" height="24" rx="5" fill="#D6B263"/>
      <rect x="392" y="1040" width="650" height="18" fill="#18211B" opacity="0.10"/>

      <rect x="1068" y="552" width="238" height="486" rx="18" fill="url(#darkPanel)" stroke="#D6B263" stroke-opacity="0.30"/>
      <rect x="1098" y="586" width="88" height="88" rx="16" fill="#D6B263"/>
      <rect x="1120" y="608" width="56" height="56" rx="12" fill="#8FAE72"/>
      <rect x="1098" y="714" width="148" height="18" rx="9" fill="#F3EEDC"/>
      <rect x="1098" y="756" width="170" height="8" rx="4" fill="#F3EEDC" opacity="0.44"/>
      <rect x="1098" y="782" width="126" height="8" rx="4" fill="#F3EEDC" opacity="0.34"/>
      <rect x="1098" y="832" width="72" height="30" rx="9" fill="#D6B263"/>
      <rect x="1186" y="832" width="72" height="30" rx="9" fill="#FFFFFF" fill-opacity="0.08" stroke="#D6B263" stroke-opacity="0.26"/>
      <line x1="1098" y1="900" x2="1272" y2="900" stroke="#D6B263" stroke-opacity="0.22" stroke-dasharray="6 6"/>
      <rect x="1098" y="936" width="170" height="56" rx="12" fill="#FFFFFF" fill-opacity="0.06" stroke="#D6B263" stroke-opacity="0.20"/>
    </g>

    <rect x="372" y="1100" width="142" height="42" rx="12" fill="#EFE2C5" stroke="#C5B493"/>
    <rect x="532" y="1100" width="142" height="42" rx="12" fill="#D6B263"/>
    <rect x="692" y="1100" width="142" height="42" rx="12" fill="#EFE2C5" stroke="#C5B493"/>
    <rect x="852" y="1100" width="142" height="42" rx="12" fill="#EFE2C5" stroke="#C5B493"/>
    <rect x="1046" y="1104" width="38" height="34" rx="9" fill="#EFE2C5" stroke="#C5B493"/>
    <rect x="1100" y="1104" width="38" height="34" rx="9" fill="#D6B263"/>
    <rect x="1154" y="1104" width="38" height="34" rx="9" fill="#EFE2C5" stroke="#C5B493"/>
    <rect x="1208" y="1104" width="38" height="34" rx="9" fill="#EFE2C5" stroke="#C5B493"/>
  </g>

  <g id="entity-detail-page" transform="translate(0 1400)">
    <rect x="0" y="0" width="1440" height="1460" fill="url(#pageBg)"/>
    <rect x="64" y="54" width="1312" height="82" rx="24" fill="#18211B" stroke="#D6B263" stroke-opacity="0.28"/>
    <rect x="96" y="84" width="180" height="16" rx="8" fill="#F3EEDC"/>
    <rect x="1020" y="84" width="84" height="10" rx="5" fill="#F3EEDC" opacity="0.54"/>
    <rect x="1134" y="84" width="84" height="10" rx="5" fill="#F3EEDC" opacity="0.54"/>
    <rect x="1248" y="76" width="92" height="34" rx="10" fill="#D6B263"/>

    <rect x="64" y="172" width="1312" height="370" rx="26" fill="url(#darkPanel)" stroke="#D6B263" stroke-opacity="0.30" filter="url(#softShadow)"/>
    <rect x="112" y="222" width="220" height="220" rx="26" fill="#26341F" stroke="#D6B263" stroke-opacity="0.34"/>
    <circle cx="222" cy="332" r="72" fill="#D6B263" opacity="0.65"/>
    <rect x="184" y="294" width="92" height="92" rx="16" fill="#9AC26B"/>
    <rect x="738" y="222" width="554" height="264" rx="20" fill="#FBF8F0" fill-opacity="0.12" stroke="#D6B263" stroke-opacity="0.24"/>
    <rect x="382" y="228" width="132" height="10" rx="5" fill="#D6B263"/>
    <rect x="382" y="262" width="388" height="46" rx="23" fill="#F3EEDC"/>
    <rect x="382" y="338" width="466" height="10" rx="5" fill="#F3EEDC" opacity="0.48"/>
    <rect x="382" y="364" width="326" height="10" rx="5" fill="#F3EEDC" opacity="0.38"/>
    <rect x="382" y="412" width="104" height="34" rx="9" fill="#D6B263"/>
    <rect x="500" y="412" width="104" height="34" rx="9" fill="#FFFFFF" fill-opacity="0.08" stroke="#D6B263" stroke-opacity="0.24"/>
    <rect x="618" y="412" width="104" height="34" rx="9" fill="#FFFFFF" fill-opacity="0.08" stroke="#D6B263" stroke-opacity="0.24"/>
    <rect x="772" y="252" width="210" height="10" rx="5" fill="#F3EEDC" opacity="0.62"/>
    <rect x="772" y="292" width="410" height="8" rx="4" fill="#F3EEDC" opacity="0.38"/>
    <rect x="772" y="324" width="350" height="8" rx="4" fill="#F3EEDC" opacity="0.38"/>
    <rect x="772" y="356" width="280" height="8" rx="4" fill="#F3EEDC" opacity="0.38"/>
    <rect x="772" y="412" width="116" height="30" rx="8" fill="#D6B263"/>

    <rect x="64" y="584" width="1312" height="76" rx="20" fill="url(#paperPanel)" stroke="#C8B895"/>
    <rect x="104" y="606" width="124" height="32" rx="10" fill="#D6B263"/>
    <rect x="244" y="606" width="124" height="32" rx="10" fill="#EFE2C5" stroke="#C5B493"/>
    <rect x="384" y="606" width="124" height="32" rx="10" fill="#EFE2C5" stroke="#C5B493"/>
    <rect x="524" y="606" width="124" height="32" rx="10" fill="#EFE2C5" stroke="#C5B493"/>

    <rect x="64" y="700" width="780" height="300" rx="22" fill="#FBF8F0" stroke="#D0C4AC"/>
    <rect x="100" y="736" width="132" height="10" rx="5" fill="#D6B263"/>
    <rect x="100" y="770" width="280" height="24" rx="12" fill="#273223"/>
    <rect x="100" y="826" width="650" height="10" rx="5" fill="#958D7A"/>
    <rect x="100" y="852" width="520" height="10" rx="5" fill="#958D7A"/>
    <rect x="100" y="908" width="160" height="52" rx="12" fill="#EFE2C5" stroke="#C5B493"/>
    <rect x="306" y="908" width="160" height="52" rx="12" fill="#EFE2C5" stroke="#C5B493"/>
    <rect x="512" y="908" width="160" height="52" rx="12" fill="#EFE2C5" stroke="#C5B493"/>
    <path d="M260 934 H306 M466 934 H512" stroke="#8D7650" stroke-width="3" stroke-dasharray="8 8"/>

    <rect x="874" y="700" width="502" height="300" rx="22" fill="#FBF8F0" stroke="#D0C4AC"/>
    <rect x="910" y="736" width="210" height="24" rx="12" fill="#273223"/>
    <rect x="910" y="800" width="410" height="54" rx="12" fill="#FFFFFF" stroke="#D0C4AC"/>
    <rect x="930" y="820" width="240" height="9" rx="4.5" fill="#7F8877"/>
    <rect x="910" y="872" width="410" height="54" rx="12" fill="#FFFFFF" stroke="#D0C4AC"/>
    <rect x="930" y="892" width="260" height="9" rx="4.5" fill="#7F8877"/>

    <rect x="64" y="1036" width="620" height="300" rx="22" fill="url(#paperPanel)" stroke="#C8B895"/>
    <rect x="100" y="1074" width="240" height="24" rx="12" fill="#273223"/>
    <rect x="100" y="1130" width="510" height="10" rx="5" fill="#958D7A"/>
    <rect x="100" y="1160" width="430" height="10" rx="5" fill="#958D7A"/>
    <rect x="100" y="1216" width="168" height="48" rx="12" fill="#FFFFFF" fill-opacity="0.42" stroke="#D0C4AC"/>
    <rect x="292" y="1216" width="168" height="48" rx="12" fill="#FFFFFF" fill-opacity="0.42" stroke="#D0C4AC"/>
    <rect x="484" y="1216" width="168" height="48" rx="12" fill="#FFFFFF" fill-opacity="0.42" stroke="#D0C4AC"/>

    <rect x="724" y="1036" width="652" height="300" rx="22" fill="#18211B" stroke="#D6B263" stroke-opacity="0.30"/>
    <rect x="760" y="1074" width="118" height="9" rx="4.5" fill="#D6B263"/>
    <rect x="760" y="1104" width="270" height="24" rx="12" fill="#F3EEDC"/>
    <rect x="760" y="1160" width="520" height="10" rx="5" fill="#F3EEDC" opacity="0.42"/>
    <rect x="760" y="1190" width="430" height="10" rx="5" fill="#F3EEDC" opacity="0.42"/>
    <rect x="760" y="1248" width="180" height="48" rx="12" fill="#FFFFFF" fill-opacity="0.06" stroke="#D6B263" stroke-opacity="0.22"/>
    <rect x="970" y="1248" width="180" height="48" rx="12" fill="#FFFFFF" fill-opacity="0.06" stroke="#D6B263" stroke-opacity="0.22"/>
    <rect x="1180" y="1248" width="120" height="48" rx="12" fill="#D6B263"/>
  </g>

  <g id="article-ledger-page" transform="translate(0 3000)">
    <rect x="0" y="0" width="1440" height="1220" fill="url(#pageBg)"/>
    <rect x="0" y="0" width="1440" height="1220" fill="url(#densePaperRule)" opacity="0.7"/>
    <rect x="64" y="54" width="1312" height="332" rx="28" fill="url(#darkPanel)" stroke="#D6B263" stroke-opacity="0.30" filter="url(#softShadow)"/>
    <circle cx="1128" cy="96" r="220" fill="#D6B263" opacity="0.10"/>
    <circle cx="420" cy="360" r="260" fill="#9AC26B" opacity="0.08"/>
    <rect x="110" y="102" width="132" height="10" rx="5" fill="#D6B263"/>
    <rect x="110" y="142" width="444" height="58" rx="29" fill="#F3EEDC"/>
    <rect x="110" y="236" width="650" height="10" rx="5" fill="#F3EEDC" opacity="0.48"/>
    <rect x="110" y="264" width="430" height="10" rx="5" fill="#F3EEDC" opacity="0.38"/>
    <rect x="110" y="314" width="126" height="34" rx="10" fill="#D6B263"/>
    <rect x="250" y="314" width="126" height="34" rx="10" fill="#FFFFFF" fill-opacity="0.08" stroke="#D6B263" stroke-opacity="0.26"/>
    <rect x="390" y="314" width="126" height="34" rx="10" fill="#FFFFFF" fill-opacity="0.08" stroke="#D6B263" stroke-opacity="0.26"/>

    <g id="featured-scroll" transform="translate(812 86)">
      <rect x="0" y="0" width="424" height="238" rx="24" fill="#FBF3DF" stroke="#D6B263" stroke-opacity="0.44"/>
      <rect x="22" y="22" width="380" height="194" rx="16" stroke="#9B8860" stroke-opacity="0.26"/>
      <rect x="48" y="50" width="112" height="34" rx="8" fill="#D6B263"/>
      <rect x="48" y="116" width="272" height="26" rx="13" fill="#273223"/>
      <rect x="48" y="172" width="304" height="9" rx="4.5" fill="#958D7A"/>
      <rect x="48" y="198" width="214" height="9" rx="4.5" fill="#958D7A"/>
      <rect x="338" y="32" width="44" height="158" rx="14" fill="#18211B" opacity="0.12"/>
      <path d="M360 54 V174" stroke="#8D7650" stroke-opacity="0.42" stroke-width="3" stroke-dasharray="7 8"/>
    </g>

    <g id="article-main-ledger">
      <rect x="64" y="430" width="820" height="640" rx="28" fill="url(#paperPanel)" stroke="#C8B895" filter="url(#softShadow)"/>
      <rect x="92" y="458" width="764" height="584" rx="20" fill="#FBF8F0" fill-opacity="0.54" stroke="#C8B895"/>
      <rect x="118" y="492" width="112" height="9" rx="4.5" fill="#D6B263"/>
      <rect x="118" y="524" width="308" height="28" rx="14" fill="#273223"/>
      <path d="M118 584 H820" stroke="#9B8860" stroke-opacity="0.26" stroke-width="2" stroke-dasharray="9 9"/>

      <rect x="118" y="620" width="330" height="340" rx="22" fill="#18211B" stroke="#D6B263" stroke-opacity="0.30"/>
      <rect x="144" y="650" width="92" height="92" rx="16" fill="#9AC26B"/>
      <rect x="168" y="674" width="92" height="92" rx="16" fill="#D6B263" opacity="0.86"/>
      <rect x="144" y="804" width="224" height="26" rx="13" fill="#F3EEDC"/>
      <rect x="144" y="854" width="250" height="9" rx="4.5" fill="#F3EEDC" opacity="0.48"/>
      <rect x="144" y="882" width="184" height="9" rx="4.5" fill="#F3EEDC" opacity="0.36"/>
      <rect x="144" y="920" width="96" height="30" rx="9" fill="#D6B263"/>

      <g id="article-stack">
        <rect x="484" y="620" width="330" height="92" rx="16" fill="#FFFFFF" fill-opacity="0.48" stroke="#D0C4AC"/>
        <rect x="508" y="646" width="152" height="16" rx="8" fill="#273223"/>
        <rect x="508" y="680" width="214" height="8" rx="4" fill="#958D7A"/>
        <rect x="744" y="646" width="46" height="34" rx="9" fill="#D6B263"/>
        <rect x="484" y="738" width="330" height="92" rx="16" fill="#FFFFFF" fill-opacity="0.48" stroke="#D0C4AC"/>
        <rect x="508" y="764" width="180" height="16" rx="8" fill="#273223"/>
        <rect x="508" y="798" width="224" height="8" rx="4" fill="#958D7A"/>
        <rect x="744" y="764" width="46" height="34" rx="9" fill="#D6B263"/>
        <rect x="484" y="856" width="330" height="92" rx="16" fill="#FFFFFF" fill-opacity="0.48" stroke="#D0C4AC"/>
        <rect x="508" y="882" width="166" height="16" rx="8" fill="#273223"/>
        <rect x="508" y="916" width="234" height="8" rx="4" fill="#958D7A"/>
        <rect x="744" y="882" width="46" height="34" rx="9" fill="#D6B263"/>
      </g>
    </g>

    <g id="article-right-index">
      <rect x="920" y="430" width="456" height="640" rx="28" fill="#18211B" stroke="#D6B263" stroke-opacity="0.30" filter="url(#softShadow)"/>
      <rect x="956" y="470" width="118" height="9" rx="4.5" fill="#D6B263"/>
      <rect x="956" y="500" width="244" height="28" rx="14" fill="#F3EEDC"/>
      <path d="M994 584 C1058 532 1140 532 1202 584 C1248 622 1304 620 1332 590" stroke="#D6B263" stroke-opacity="0.42" stroke-width="2" stroke-dasharray="9 9"/>
      <rect x="956" y="612" width="180" height="76" rx="16" fill="#FFFFFF" fill-opacity="0.06" stroke="#D6B263" stroke-opacity="0.22"/>
      <rect x="982" y="638" width="92" height="10" rx="5" fill="#D6B263"/>
      <rect x="982" y="666" width="112" height="8" rx="4" fill="#F3EEDC" opacity="0.42"/>
      <rect x="1160" y="612" width="180" height="76" rx="16" fill="#FFFFFF" fill-opacity="0.06" stroke="#D6B263" stroke-opacity="0.22"/>
      <rect x="1186" y="638" width="92" height="10" rx="5" fill="#D6B263"/>
      <rect x="1186" y="666" width="112" height="8" rx="4" fill="#F3EEDC" opacity="0.42"/>
      <rect x="956" y="716" width="180" height="76" rx="16" fill="#FFFFFF" fill-opacity="0.06" stroke="#D6B263" stroke-opacity="0.22"/>
      <rect x="982" y="742" width="92" height="10" rx="5" fill="#D6B263"/>
      <rect x="982" y="770" width="112" height="8" rx="4" fill="#F3EEDC" opacity="0.42"/>
      <rect x="1160" y="716" width="180" height="76" rx="16" fill="#FFFFFF" fill-opacity="0.06" stroke="#D6B263" stroke-opacity="0.22"/>
      <rect x="1186" y="742" width="92" height="10" rx="5" fill="#D6B263"/>
      <rect x="1186" y="770" width="112" height="8" rx="4" fill="#F3EEDC" opacity="0.42"/>

      <rect x="956" y="850" width="384" height="144" rx="18" fill="#FBF3DF" stroke="#C8B895"/>
      <rect x="984" y="882" width="90" height="28" rx="8" fill="#D6B263"/>
      <rect x="984" y="934" width="220" height="18" rx="9" fill="#273223"/>
      <rect x="984" y="974" width="270" height="9" rx="4.5" fill="#958D7A"/>
    </g>

    <g id="article-bottom-path">
      <rect x="122" y="1110" width="1196" height="74" rx="22" fill="#18211B" stroke="#D6B263" stroke-opacity="0.30"/>
      <rect x="154" y="1136" width="96" height="10" rx="5" fill="#D6B263"/>
      <rect x="286" y="1130" width="178" height="34" rx="10" fill="#FFFFFF" fill-opacity="0.06" stroke="#D6B263" stroke-opacity="0.20"/>
      <rect x="496" y="1130" width="178" height="34" rx="10" fill="#FFFFFF" fill-opacity="0.06" stroke="#D6B263" stroke-opacity="0.20"/>
      <rect x="706" y="1130" width="178" height="34" rx="10" fill="#FFFFFF" fill-opacity="0.06" stroke="#D6B263" stroke-opacity="0.20"/>
      <rect x="916" y="1130" width="178" height="34" rx="10" fill="#FFFFFF" fill-opacity="0.06" stroke="#D6B263" stroke-opacity="0.20"/>
      <rect x="1126" y="1130" width="120" height="34" rx="10" fill="#D6B263"/>
    </g>
  </g>
</svg>
