<svg xmlns="http://www.w3.org/2000/svg" width="1440" height="4200" viewBox="0 0 1440 4200" fill="none">
  <title>TerraPedia Frontend Remaining Public Pages Low Fidelity v1</title>
  <desc>Low-fidelity public frontend frames for category atlas, biome atlas, and public statistics overview.</desc>
  <defs>
    <linearGradient id="remainPaperBg" x1="720" y1="0" x2="720" y2="1280" gradientUnits="userSpaceOnUse">
      <stop stop-color="#F8F1DD"/>
      <stop offset="1" stop-color="#E6D7B9"/>
    </linearGradient>
    <linearGradient id="remainDarkBg" x1="0" y1="0" x2="1440" y2="1280" gradientUnits="userSpaceOnUse">
      <stop stop-color="#0B120C"/>
      <stop offset="0.58" stop-color="#18231A"/>
      <stop offset="1" stop-color="#2E3922"/>
    </linearGradient>
    <linearGradient id="remainDarkPanel" x1="0" y1="0" x2="1" y2="1">
      <stop stop-color="#18211B"/>
      <stop offset="1" stop-color="#31442B"/>
    </linearGradient>
    <linearGradient id="remainPaperPanel" x1="0" y1="0" x2="1" y2="1">
      <stop stop-color="#FBF3DF"/>
      <stop offset="1" stop-color="#EFE1C4"/>
    </linearGradient>
    <linearGradient id="remainMossPanel" x1="0" y1="0" x2="1" y2="1">
      <stop stop-color="#EAF0D2"/>
      <stop offset="1" stop-color="#C9D8AA"/>
    </linearGradient>
    <radialGradient id="remainGoldGlow" cx="0" cy="0" r="1" gradientUnits="userSpaceOnUse" gradientTransform="translate(1078 208) rotate(90) scale(360)">
      <stop stop-color="#D6B263" stop-opacity="0.25"/>
      <stop offset="1" stop-color="#D6B263" stop-opacity="0"/>
    </radialGradient>
    <pattern id="remainPaperGrid" width="36" height="36" patternUnits="userSpaceOnUse">
      <path d="M36 0 L0 0 0 36" stroke="#6E684E" stroke-opacity="0.08" stroke-width="1"/>
    </pattern>
    <pattern id="remainRuneGrid" width="46" height="46" patternUnits="userSpaceOnUse">
      <path d="M23 8 V38 M8 23 H38" stroke="#D6B263" stroke-opacity="0.08" stroke-width="1"/>
      <rect x="20" y="20" width="6" height="6" rx="2" fill="#D6B263" opacity="0.14"/>
    </pattern>
    <pattern id="remainMiniWall" width="40" height="50" patternUnits="userSpaceOnUse">
      <rect x="4" y="4" width="32" height="32" rx="7" fill="#FFFFFF" fill-opacity="0.60" stroke="#D0C4AC"/>
      <rect x="12" y="10" width="16" height="16" rx="4" fill="#8FAE72"/>
      <rect x="8" y="40" width="24" height="4" rx="2" fill="#958D7A" opacity="0.58"/>
    </pattern>
    <filter id="remainSoftShadow" x="-20%" y="-20%" width="140%" height="150%" color-interpolation-filters="sRGB">
      <feDropShadow dx="0" dy="16" stdDeviation="18" flood-color="#302B1F" flood-opacity="0.15"/>
    </filter>
    <filter id="remainDarkShadow" x="-25%" y="-25%" width="150%" height="160%" color-interpolation-filters="sRGB">
      <feDropShadow dx="0" dy="24" stdDeviation="24" flood-color="#000000" flood-opacity="0.30"/>
    </filter>
  </defs>

  <rect width="1440" height="4200" fill="#0F1711"/>

  <g id="remain-nav-template">
    <rect x="64" y="54" width="1312" height="86" rx="24" fill="#18211B" stroke="#D6B263" stroke-opacity="0.28"/>
    <rect x="96" y="82" width="30" height="30" rx="7" fill="#9AC26B"/>
    <rect x="106" y="92" width="30" height="30" rx="7" fill="#D6B263" opacity="0.86"/>
    <rect x="158" y="83" width="184" height="18" rx="9" fill="#F3EEDC"/>
    <rect x="158" y="112" width="292" height="8" rx="4" fill="#F3EEDC" opacity="0.42"/>
    <rect x="806" y="84" width="68" height="10" rx="5" fill="#F3EEDC" opacity="0.56"/>
    <rect x="908" y="84" width="68" height="10" rx="5" fill="#F3EEDC" opacity="0.56"/>
    <rect x="1010" y="84" width="68" height="10" rx="5" fill="#F3EEDC" opacity="0.56"/>
    <rect x="1112" y="84" width="68" height="10" rx="5" fill="#F3EEDC" opacity="0.56"/>
    <rect x="1234" y="76" width="100" height="34" rx="10" fill="#D6B263"/>
  </g>

  <g id="category-atlas-page">
    <rect x="0" y="0" width="1440" height="1280" fill="url(#remainPaperBg)"/>
    <rect x="0" y="0" width="1440" height="1280" fill="url(#remainPaperGrid)" opacity="0.78"/>
    <rect x="0" y="0" width="1440" height="170" fill="#0B120C"/>
    <use href="#remain-nav-template"/>

    <rect x="64" y="196" width="1312" height="244" rx="30" fill="url(#remainDarkPanel)" stroke="#D6B263" stroke-opacity="0.30" filter="url(#remainSoftShadow)"/>
    <rect x="108" y="238" width="136" height="10" rx="5" fill="#D6B263"/>
    <rect x="108" y="274" width="420" height="46" rx="23" fill="#F3EEDC"/>
    <rect x="108" y="350" width="520" height="10" rx="5" fill="#F3EEDC" opacity="0.44"/>
    <rect x="108" y="378" width="384" height="10" rx="5" fill="#F3EEDC" opacity="0.32"/>
    <rect x="744" y="238" width="160" height="120" rx="22" fill="#0B120C" fill-opacity="0.42" stroke="#D6B263" stroke-opacity="0.24"/>
    <rect x="774" y="268" width="54" height="54" rx="14" fill="#D6B263"/>
    <rect x="846" y="274" width="32" height="10" rx="5" fill="#F3EEDC" opacity="0.48"/>
    <rect x="846" y="302" width="42" height="8" rx="4" fill="#F3EEDC" opacity="0.32"/>
    <rect x="936" y="238" width="160" height="120" rx="22" fill="#0B120C" fill-opacity="0.42" stroke="#D6B263" stroke-opacity="0.24"/>
    <rect x="966" y="268" width="54" height="54" rx="14" fill="#8FAE72"/>
    <rect x="1038" y="274" width="32" height="10" rx="5" fill="#F3EEDC" opacity="0.48"/>
    <rect x="1038" y="302" width="42" height="8" rx="4" fill="#F3EEDC" opacity="0.32"/>
    <rect x="1128" y="238" width="160" height="120" rx="22" fill="#0B120C" fill-opacity="0.42" stroke="#D6B263" stroke-opacity="0.24"/>
    <rect x="1158" y="268" width="54" height="54" rx="14" fill="#C9D8AA"/>
    <rect x="1230" y="274" width="32" height="10" rx="5" fill="#F3EEDC" opacity="0.48"/>
    <rect x="1230" y="302" width="42" height="8" rx="4" fill="#F3EEDC" opacity="0.32"/>

    <rect x="64" y="486" width="292" height="614" rx="24" fill="url(#remainPaperPanel)" stroke="#C8B895" filter="url(#remainSoftShadow)"/>
    <rect x="100" y="526" width="118" height="10" rx="5" fill="#D6B263"/>
    <rect x="100" y="566" width="190" height="42" rx="14" fill="#18211B"/>
    <rect x="126" y="583" width="118" height="8" rx="4" fill="#F3EEDC" opacity="0.54"/>
    <rect x="100" y="632" width="190" height="42" rx="14" fill="#F4E9CF" stroke="#C5B493"/>
    <rect x="126" y="649" width="132" height="8" rx="4" fill="#7E8675"/>
    <rect x="100" y="698" width="190" height="42" rx="14" fill="#F4E9CF" stroke="#C5B493"/>
    <rect x="126" y="715" width="96" height="8" rx="4" fill="#7E8675"/>
    <rect x="100" y="764" width="190" height="42" rx="14" fill="#F4E9CF" stroke="#C5B493"/>
    <rect x="126" y="781" width="140" height="8" rx="4" fill="#7E8675"/>
    <line x1="110" y1="850" x2="312" y2="850" stroke="#C8B895" stroke-dasharray="6 6"/>
    <rect x="100" y="884" width="90" height="90" rx="18" fill="#D6B263" opacity="0.88"/>
    <rect x="214" y="884" width="90" height="90" rx="18" fill="#8FAE72"/>
    <rect x="100" y="1008" width="206" height="48" rx="14" fill="#EFE2C5" stroke="#C5B493"/>

    <rect x="392" y="486" width="610" height="614" rx="28" fill="#FBF8F0" stroke="#D0C4AC" filter="url(#remainSoftShadow)"/>
    <rect x="426" y="524" width="132" height="10" rx="5" fill="#D6B263"/>
    <rect x="426" y="564" width="278" height="26" rx="13" fill="#273223"/>
    <circle cx="696" cy="792" r="190" fill="#18211B" opacity="0.08"/>
    <circle cx="696" cy="792" r="124" fill="#18211B" opacity="0.08"/>
    <circle cx="696" cy="792" r="66" fill="#D6B263" opacity="0.80"/>
    <circle cx="696" cy="792" r="34" fill="#31442B"/>
    <path d="M696 792 C628 706 574 690 500 704" stroke="#8FAE72" stroke-width="10" stroke-linecap="round"/>
    <path d="M696 792 C790 690 844 668 922 654" stroke="#8FAE72" stroke-width="10" stroke-linecap="round"/>
    <path d="M696 792 C600 884 562 930 506 1000" stroke="#8FAE72" stroke-width="10" stroke-linecap="round"/>
    <path d="M696 792 C806 880 868 918 930 1000" stroke="#8FAE72" stroke-width="10" stroke-linecap="round"/>
    <rect x="476" y="676" width="90" height="60" rx="16" fill="#F4E9CF" stroke="#C5B493"/>
    <rect x="842" y="626" width="90" height="60" rx="16" fill="#F4E9CF" stroke="#C5B493"/>
    <rect x="470" y="976" width="90" height="60" rx="16" fill="#F4E9CF" stroke="#C5B493"/>
    <rect x="882" y="976" width="90" height="60" rx="16" fill="#F4E9CF" stroke="#C5B493"/>
    <rect x="462" y="1050" width="470" height="18" rx="9" fill="#18211B" opacity="0.10"/>

    <rect x="1036" y="486" width="340" height="614" rx="24" fill="url(#remainDarkPanel)" stroke="#D6B263" stroke-opacity="0.30" filter="url(#remainDarkShadow)"/>
    <rect x="1072" y="526" width="118" height="10" rx="5" fill="#D6B263"/>
    <rect x="1072" y="566" width="206" height="24" rx="12" fill="#F3EEDC"/>
    <rect x="1072" y="628" width="236" height="164" rx="18" fill="url(#remainMiniWall)"/>
    <rect x="1072" y="628" width="236" height="164" rx="18" fill="none" stroke="#D6B263" stroke-opacity="0.22"/>
    <rect x="1072" y="830" width="236" height="54" rx="14" fill="#FFFFFF" fill-opacity="0.09" stroke="#D6B263" stroke-opacity="0.20"/>
    <rect x="1098" y="852" width="118" height="8" rx="4" fill="#F3EEDC" opacity="0.50"/>
    <rect x="1072" y="914" width="108" height="74" rx="16" fill="#0B120C" fill-opacity="0.34" stroke="#D6B263" stroke-opacity="0.18"/>
    <rect x="1200" y="914" width="108" height="74" rx="16" fill="#0B120C" fill-opacity="0.34" stroke="#D6B263" stroke-opacity="0.18"/>
    <rect x="1072" y="1020" width="236" height="36" rx="12" fill="#D6B263"/>
  </g>

  <g id="biome-atlas-page" transform="translate(0 1400)">
    <rect x="0" y="0" width="1440" height="1280" fill="url(#remainDarkBg)"/>
    <rect x="0" y="0" width="1440" height="1280" fill="url(#remainRuneGrid)" opacity="0.60"/>
    <rect x="0" y="0" width="1440" height="1280" fill="url(#remainGoldGlow)"/>
    <use href="#remain-nav-template"/>

    <rect x="64" y="190" width="1312" height="226" rx="30" fill="#0B120C" fill-opacity="0.46" stroke="#D6B263" stroke-opacity="0.30" filter="url(#remainDarkShadow)"/>
    <rect x="108" y="232" width="132" height="10" rx="5" fill="#D6B263"/>
    <rect x="108" y="268" width="430" height="46" rx="23" fill="#F3EEDC"/>
    <rect x="108" y="344" width="520" height="10" rx="5" fill="#F3EEDC" opacity="0.44"/>
    <rect x="846" y="226" width="398" height="120" rx="24" fill="#FBF3DF" stroke="#C8B895"/>
    <rect x="884" y="260" width="100" height="10" rx="5" fill="#D6B263"/>
    <rect x="884" y="296" width="266" height="18" rx="9" fill="#273223"/>
    <rect x="884" y="330" width="302" height="8" rx="4" fill="#958D7A"/>

    <rect x="64" y="470" width="278" height="624" rx="24" fill="url(#remainPaperPanel)" stroke="#C8B895" filter="url(#remainSoftShadow)"/>
    <rect x="98" y="510" width="118" height="10" rx="5" fill="#D6B263"/>
    <rect x="98" y="552" width="190" height="44" rx="14" fill="#18211B"/>
    <rect x="122" y="570" width="112" height="8" rx="4" fill="#F3EEDC" opacity="0.54"/>
    <rect x="98" y="620" width="190" height="44" rx="14" fill="#F4E9CF" stroke="#C5B493"/>
    <rect x="122" y="638" width="136" height="8" rx="4" fill="#7E8675"/>
    <rect x="98" y="688" width="190" height="44" rx="14" fill="#F4E9CF" stroke="#C5B493"/>
    <rect x="122" y="706" width="120" height="8" rx="4" fill="#7E8675"/>
    <rect x="98" y="756" width="190" height="44" rx="14" fill="#F4E9CF" stroke="#C5B493"/>
    <rect x="122" y="774" width="146" height="8" rx="4" fill="#7E8675"/>
    <rect x="98" y="824" width="190" height="44" rx="14" fill="#F4E9CF" stroke="#C5B493"/>
    <rect x="122" y="842" width="104" height="8" rx="4" fill="#7E8675"/>
    <line x1="108" y1="912" x2="302" y2="912" stroke="#C8B895" stroke-dasharray="6 6"/>
    <rect x="98" y="950" width="88" height="74" rx="16" fill="#8FAE72"/>
    <rect x="204" y="950" width="88" height="74" rx="16" fill="#D6B263" opacity="0.88"/>

    <rect x="382" y="470" width="642" height="624" rx="28" fill="#FBF8F0" stroke="#D0C4AC" filter="url(#remainSoftShadow)"/>
    <rect x="416" y="510" width="132" height="10" rx="5" fill="#D6B263"/>
    <rect x="416" y="550" width="250" height="24" rx="12" fill="#273223"/>
    <rect x="432" y="618" width="556" height="78" rx="18" fill="#C9D8AA" stroke="#9CAE78"/>
    <rect x="432" y="710" width="556" height="86" rx="18" fill="#8FAE72" stroke="#728F59"/>
    <rect x="432" y="808" width="556" height="94" rx="18" fill="#6F8F4E" stroke="#5D7C43"/>
    <rect x="432" y="914" width="556" height="78" rx="18" fill="#31442B" stroke="#D6B263" stroke-opacity="0.24"/>
    <path d="M460 760 C560 700 642 726 720 766 C794 804 868 796 958 738" stroke="#F8F1DD" stroke-width="12" stroke-linecap="round" opacity="0.52"/>
    <path d="M536 858 C624 814 734 828 838 882" stroke="#D6B263" stroke-width="10" stroke-linecap="round" opacity="0.66"/>
    <circle cx="650" cy="744" r="38" fill="#D6B263" stroke="#FBF3DF" stroke-width="8"/>
    <circle cx="832" cy="858" r="30" fill="#18211B" stroke="#D6B263" stroke-width="6"/>
    <rect x="474" y="1028" width="430" height="18" rx="9" fill="#18211B" opacity="0.10"/>

    <rect x="1064" y="470" width="312" height="624" rx="24" fill="url(#remainPaperPanel)" stroke="#C8B895" filter="url(#remainSoftShadow)"/>
    <rect x="1100" y="510" width="118" height="10" rx="5" fill="#D6B263"/>
    <rect x="1100" y="550" width="190" height="28" rx="14" fill="#273223"/>
    <rect x="1100" y="626" width="220" height="88" rx="16" fill="#FFFFFF" stroke="#D0C4AC"/>
    <rect x="1124" y="660" width="112" height="10" rx="5" fill="#7E8675"/>
    <rect x="1100" y="746" width="220" height="88" rx="16" fill="#FFFFFF" stroke="#D0C4AC"/>
    <rect x="1124" y="780" width="132" height="10" rx="5" fill="#7E8675"/>
    <rect x="1100" y="866" width="220" height="88" rx="16" fill="#FFFFFF" stroke="#D0C4AC"/>
    <rect x="1124" y="900" width="98" height="10" rx="5" fill="#7E8675"/>
    <rect x="1100" y="994" width="96" height="46" rx="13" fill="#D6B263"/>
    <rect x="1216" y="994" width="96" height="46" rx="13" fill="#EFE2C5" stroke="#C5B493"/>
  </g>

  <g id="public-statistics-overview" transform="translate(0 2800)">
    <rect x="0" y="0" width="1440" height="1280" fill="url(#remainPaperBg)"/>
    <rect x="0" y="0" width="1440" height="1280" fill="url(#remainPaperGrid)" opacity="0.76"/>
    <rect x="0" y="0" width="1440" height="170" fill="#0B120C"/>
    <use href="#remain-nav-template"/>

    <rect x="64" y="196" width="1312" height="258" rx="30" fill="url(#remainDarkPanel)" stroke="#D6B263" stroke-opacity="0.30" filter="url(#remainSoftShadow)"/>
    <rect x="108" y="238" width="132" height="10" rx="5" fill="#D6B263"/>
    <rect x="108" y="274" width="430" height="46" rx="23" fill="#F3EEDC"/>
    <rect x="108" y="350" width="520" height="10" rx="5" fill="#F3EEDC" opacity="0.44"/>
    <rect x="108" y="378" width="384" height="10" rx="5" fill="#F3EEDC" opacity="0.32"/>
    <rect x="724" y="236" width="170" height="132" rx="24" fill="#0B120C" fill-opacity="0.40" stroke="#D6B263" stroke-opacity="0.24"/>
    <rect x="760" y="272" width="72" height="30" rx="15" fill="#D6B263"/>
    <rect x="760" y="328" width="82" height="10" rx="5" fill="#F3EEDC" opacity="0.44"/>
    <rect x="926" y="236" width="170" height="132" rx="24" fill="#0B120C" fill-opacity="0.40" stroke="#D6B263" stroke-opacity="0.24"/>
    <rect x="962" y="272" width="72" height="30" rx="15" fill="#8FAE72"/>
    <rect x="962" y="328" width="82" height="10" rx="5" fill="#F3EEDC" opacity="0.44"/>
    <rect x="1128" y="236" width="170" height="132" rx="24" fill="#0B120C" fill-opacity="0.40" stroke="#D6B263" stroke-opacity="0.24"/>
    <rect x="1164" y="272" width="72" height="30" rx="15" fill="#C9D8AA"/>
    <rect x="1164" y="328" width="82" height="10" rx="5" fill="#F3EEDC" opacity="0.44"/>

    <rect x="64" y="506" width="396" height="602" rx="24" fill="url(#remainPaperPanel)" stroke="#C8B895" filter="url(#remainSoftShadow)"/>
    <rect x="100" y="546" width="118" height="10" rx="5" fill="#D6B263"/>
    <circle cx="260" cy="742" r="118" fill="#18211B" opacity="0.08"/>
    <circle cx="260" cy="742" r="86" fill="none" stroke="#8FAE72" stroke-width="22"/>
    <path d="M260 656 A86 86 0 0 1 342 768" stroke="#D6B263" stroke-width="22" stroke-linecap="round"/>
    <circle cx="260" cy="742" r="44" fill="#FBF8F0" stroke="#C8B895"/>
    <rect x="128" y="906" width="264" height="38" rx="12" fill="#273223"/>
    <rect x="128" y="970" width="264" height="38" rx="12" fill="#EFE2C5" stroke="#C5B493"/>
    <rect x="128" y="1034" width="264" height="38" rx="12" fill="#EFE2C5" stroke="#C5B493"/>

    <rect x="500" y="506" width="474" height="602" rx="24" fill="#FBF8F0" stroke="#D0C4AC" filter="url(#remainSoftShadow)"/>
    <rect x="536" y="546" width="118" height="10" rx="5" fill="#D6B263"/>
    <rect x="536" y="586" width="250" height="24" rx="12" fill="#273223"/>
    <rect x="536" y="666" width="340" height="30" rx="15" fill="#E7D9BD"/>
    <rect x="536" y="666" width="286" height="30" rx="15" fill="#8FAE72"/>
    <rect x="536" y="734" width="340" height="30" rx="15" fill="#E7D9BD"/>
    <rect x="536" y="734" width="236" height="30" rx="15" fill="#D6B263"/>
    <rect x="536" y="802" width="340" height="30" rx="15" fill="#E7D9BD"/>
    <rect x="536" y="802" width="192" height="30" rx="15" fill="#8FAE72"/>
    <rect x="536" y="870" width="340" height="30" rx="15" fill="#E7D9BD"/>
    <rect x="536" y="870" width="148" height="30" rx="15" fill="#C9D8AA"/>
    <rect x="536" y="960" width="346" height="88" rx="18" fill="#F4E9CF" stroke="#C8B895"/>
    <path d="M570 1004 H848" stroke="#273223" stroke-width="8" stroke-linecap="round" stroke-dasharray="18 18" opacity="0.28"/>

    <rect x="1014" y="506" width="362" height="602" rx="24" fill="url(#remainDarkPanel)" stroke="#D6B263" stroke-opacity="0.30" filter="url(#remainDarkShadow)"/>
    <rect x="1050" y="546" width="118" height="10" rx="5" fill="#D6B263"/>
    <rect x="1050" y="586" width="216" height="24" rx="12" fill="#F3EEDC"/>
    <rect x="1050" y="658" width="250" height="82" rx="18" fill="#FFFFFF" fill-opacity="0.09" stroke="#D6B263" stroke-opacity="0.20"/>
    <rect x="1078" y="690" width="126" height="10" rx="5" fill="#F3EEDC" opacity="0.52"/>
    <rect x="1050" y="772" width="250" height="82" rx="18" fill="#FFFFFF" fill-opacity="0.09" stroke="#D6B263" stroke-opacity="0.20"/>
    <rect x="1078" y="804" width="148" height="10" rx="5" fill="#F3EEDC" opacity="0.52"/>
    <rect x="1050" y="886" width="250" height="82" rx="18" fill="#FFFFFF" fill-opacity="0.09" stroke="#D6B263" stroke-opacity="0.20"/>
    <rect x="1078" y="918" width="110" height="10" rx="5" fill="#F3EEDC" opacity="0.52"/>
    <rect x="1050" y="1010" width="250" height="44" rx="13" fill="#D6B263"/>
  </g>
</svg>
