<svg xmlns="http://www.w3.org/2000/svg" width="1440" height="6820" viewBox="0 0 1440 6820" fill="none">
  <title>TerraPedia Utility Pages Low Fidelity v1</title>
  <desc>Low-fidelity auxiliary frontend frames: about, auth, profile, writing studio, and not found.</desc>
  <defs>
    <linearGradient id="utilityPaperBg" x1="720" y1="0" x2="720" y2="1280" gradientUnits="userSpaceOnUse">
      <stop stop-color="#F8F1DD"/>
      <stop offset="1" stop-color="#E7D9BD"/>
    </linearGradient>
    <linearGradient id="utilityDarkBg" x1="0" y1="0" x2="1440" y2="1120" gradientUnits="userSpaceOnUse">
      <stop stop-color="#0B120C"/>
      <stop offset="0.56" stop-color="#172414"/>
      <stop offset="1" stop-color="#2F3621"/>
    </linearGradient>
    <linearGradient id="utilityDarkPanel" x1="0" y1="0" x2="1" y2="1">
      <stop stop-color="#18211B"/>
      <stop offset="1" stop-color="#31442B"/>
    </linearGradient>
    <linearGradient id="utilityPaperPanel" x1="0" y1="0" x2="1" y2="1">
      <stop stop-color="#FBF3DF"/>
      <stop offset="1" stop-color="#EFE1C4"/>
    </linearGradient>
    <linearGradient id="utilityGoldPanel" x1="0" y1="0" x2="1" y2="1">
      <stop stop-color="#F2D890"/>
      <stop offset="1" stop-color="#D6B263"/>
    </linearGradient>
    <radialGradient id="utilityGlowGold" cx="0" cy="0" r="1" gradientUnits="userSpaceOnUse" gradientTransform="translate(250 230) rotate(90) scale(340)">
      <stop stop-color="#D6B263" stop-opacity="0.32"/>
      <stop offset="0.54" stop-color="#9AC26B" stop-opacity="0.12"/>
      <stop offset="1" stop-color="#9AC26B" stop-opacity="0"/>
    </radialGradient>
    <radialGradient id="utilityGlowGreen" cx="0" cy="0" r="1" gradientUnits="userSpaceOnUse" gradientTransform="translate(1030 380) rotate(90) scale(430)">
      <stop stop-color="#9AC26B" stop-opacity="0.26"/>
      <stop offset="1" stop-color="#9AC26B" stop-opacity="0"/>
    </radialGradient>
    <filter id="utilitySoftShadow" x="-20%" y="-20%" width="140%" height="150%" color-interpolation-filters="sRGB">
      <feDropShadow dx="0" dy="18" stdDeviation="20" flood-color="#302B1F" flood-opacity="0.16"/>
    </filter>
    <filter id="utilityDarkShadow" x="-25%" y="-25%" width="150%" height="160%" color-interpolation-filters="sRGB">
      <feDropShadow dx="0" dy="26" stdDeviation="26" flood-color="#000000" flood-opacity="0.34"/>
    </filter>
    <filter id="utilityGlow" x="-60%" y="-60%" width="220%" height="220%" color-interpolation-filters="sRGB">
      <feDropShadow dx="0" dy="0" stdDeviation="14" flood-color="#D6B263" flood-opacity="0.34"/>
    </filter>
    <pattern id="utilityPixelGrid" width="28" height="28" patternUnits="userSpaceOnUse">
      <path d="M 28 0 L 0 0 0 28" stroke="#FFFFFF" stroke-opacity="0.055" stroke-width="1"/>
    </pattern>
    <pattern id="utilityPaperGrid" width="34" height="34" patternUnits="userSpaceOnUse">
      <path d="M 34 0 L 0 0 0 34" stroke="#6E684E" stroke-opacity="0.08" stroke-width="1"/>
    </pattern>
    <pattern id="utilityCabinetGrid" width="74" height="54" patternUnits="userSpaceOnUse">
      <rect x="7" y="7" width="60" height="40" rx="7" fill="#FFFFFF" fill-opacity="0.08" stroke="#D6B263" stroke-opacity="0.13"/>
      <rect x="22" y="20" width="30" height="5" rx="2.5" fill="#D6B263" opacity="0.24"/>
    </pattern>
    <pattern id="utilityRuneGrid" width="46" height="46" patternUnits="userSpaceOnUse">
      <path d="M23 8 V38 M8 23 H38" stroke="#D6B263" stroke-opacity="0.09" stroke-width="1"/>
      <rect x="20" y="20" width="6" height="6" rx="2" fill="#D6B263" opacity="0.16"/>
    </pattern>
  </defs>

  <rect width="1440" height="6820" fill="#0F1711"/>

  <g id="shared-navigation">
    <g id="nav-template">
      <rect x="64" y="54" width="1312" height="86" rx="24" fill="#18211B" stroke="#D6B263" stroke-opacity="0.28"/>
      <rect x="96" y="82" width="30" height="30" rx="7" fill="#9AC26B"/>
      <rect x="106" y="92" width="30" height="30" rx="7" fill="#D6B263" opacity="0.86"/>
      <rect x="158" y="83" width="184" height="18" rx="9" fill="#F3EEDC"/>
      <rect x="158" y="112" width="292" height="8" rx="4" fill="#F3EEDC" opacity="0.42"/>
      <rect x="806" y="84" width="68" height="10" rx="5" fill="#F3EEDC" opacity="0.56"/>
      <rect x="908" y="84" width="68" height="10" rx="5" fill="#F3EEDC" opacity="0.56"/>
      <rect x="1010" y="84" width="68" height="10" rx="5" fill="#F3EEDC" opacity="0.56"/>
      <rect x="1112" y="84" width="68" height="10" rx="5" fill="#F3EEDC" opacity="0.56"/>
      <rect x="1234" y="76" width="100" height="34" rx="10" fill="#D6B263"/>
    </g>
  </g>

  <g id="about-page">
    <rect x="0" y="0" width="1440" height="1280" fill="url(#utilityPaperBg)"/>
    <rect x="0" y="420" width="1440" height="860" fill="url(#utilityPaperGrid)" opacity="0.9"/>
    <rect x="0" y="0" width="1440" height="420" fill="url(#utilityDarkBg)"/>
    <rect x="0" y="0" width="1440" height="420" fill="url(#utilityGlowGold)"/>
    <use href="#nav-template"/>

    <g id="about-hero" filter="url(#utilityDarkShadow)">
      <rect x="64" y="188" width="1312" height="330" rx="28" fill="url(#utilityDarkPanel)" stroke="#D6B263" stroke-opacity="0.34"/>
      <rect x="104" y="232" width="136" height="10" rx="5" fill="#D6B263"/>
      <rect x="104" y="266" width="480" height="54" rx="18" fill="#F3EEDC"/>
      <rect x="104" y="346" width="620" height="12" rx="6" fill="#F3EEDC" opacity="0.54"/>
      <rect x="104" y="376" width="470" height="12" rx="6" fill="#F3EEDC" opacity="0.42"/>
      <rect x="104" y="424" width="154" height="42" rx="12" fill="#D6B263"/>
      <rect x="276" y="424" width="154" height="42" rx="12" fill="#FFFFFF" fill-opacity="0.10" stroke="#D6B263" stroke-opacity="0.34"/>

      <g id="about-map-object" transform="translate(782 218)">
        <rect x="0" y="24" width="448" height="214" rx="18" fill="#0B120C" fill-opacity="0.58" stroke="#D6B263" stroke-opacity="0.42"/>
        <rect x="24" y="48" width="400" height="166" rx="12" fill="#283820"/>
        <path d="M24 148 L86 76 L150 112 L210 62 L292 132 L360 92 L424 154 L424 214 L24 214 Z" fill="#3C5A31"/>
        <path d="M24 178 L104 126 L178 150 L250 108 L332 154 L424 130 L424 214 L24 214 Z" fill="#172414"/>
        <rect x="24" y="214" width="400" height="24" fill="#5E7A40"/>
        <rect x="24" y="236" width="400" height="2" fill="#D6B263" opacity="0.36"/>
        <rect x="84" y="116" width="20" height="20" fill="#D6B263" filter="url(#utilityGlow)"/>
        <rect x="272" y="88" width="18" height="18" fill="#9AC26B" filter="url(#utilityGlow)"/>
        <rect x="346" y="152" width="16" height="16" fill="#F3EEDC" opacity="0.82"/>
      </g>
      <path d="M742 342 C826 300 914 292 1002 334 C1086 374 1164 374 1252 318" stroke="#D6B263" stroke-opacity="0.40" stroke-width="3" stroke-dasharray="9 10"/>
      <rect x="776" y="318" width="18" height="18" rx="5" fill="#D6B263" filter="url(#utilityGlow)"/>
      <rect x="982" y="336" width="16" height="16" rx="5" fill="#9AC26B" filter="url(#utilityGlow)"/>
      <rect x="1218" y="308" width="16" height="16" rx="5" fill="#F3EEDC" opacity="0.86"/>
    </g>

    <g id="about-data-chain">
      <rect x="64" y="590" width="1312" height="248" rx="24" fill="#FBF8F0" stroke="#D0C4AC"/>
      <rect x="86" y="610" width="1268" height="208" rx="18" fill="none" stroke="#C8B895" stroke-opacity="0.56" stroke-dasharray="12 10"/>
      <rect x="104" y="630" width="210" height="22" rx="11" fill="#273223"/>
      <rect x="104" y="674" width="460" height="10" rx="5" fill="#958D7A"/>
      <rect x="104" y="704" width="318" height="10" rx="5" fill="#B4AB98"/>

      <path d="M158 778 H1188" stroke="#6F8F4E" stroke-width="4" stroke-linecap="round" stroke-dasharray="16 18" opacity="0.58"/>
      <rect x="104" y="744" width="204" height="64" rx="14" fill="#EFE2C5" stroke="#C5B493"/>
      <rect x="126" y="766" width="114" height="8" rx="4" fill="#273223"/>
      <rect x="126" y="790" width="72" height="6" rx="3" fill="#958D7A"/>
      <rect x="338" y="744" width="204" height="64" rx="14" fill="#EFE2C5" stroke="#C5B493"/>
      <rect x="360" y="766" width="114" height="8" rx="4" fill="#273223"/>
      <rect x="360" y="790" width="72" height="6" rx="3" fill="#958D7A"/>
      <rect x="572" y="744" width="204" height="64" rx="14" fill="#EFE2C5" stroke="#C5B493"/>
      <rect x="594" y="766" width="114" height="8" rx="4" fill="#273223"/>
      <rect x="594" y="790" width="72" height="6" rx="3" fill="#958D7A"/>
      <rect x="806" y="744" width="204" height="64" rx="14" fill="#EFE2C5" stroke="#C5B493"/>
      <rect x="828" y="766" width="114" height="8" rx="4" fill="#273223"/>
      <rect x="828" y="790" width="72" height="6" rx="3" fill="#958D7A"/>
      <rect x="1040" y="744" width="204" height="64" rx="14" fill="#D6B263"/>
      <rect x="1062" y="766" width="114" height="8" rx="4" fill="#273223" opacity="0.86"/>
      <rect x="1062" y="790" width="72" height="6" rx="3" fill="#5F4E32" opacity="0.62"/>
    </g>

    <g id="about-sections">
      <rect x="64" y="882" width="404" height="262" rx="22" fill="url(#utilityPaperPanel)" stroke="#C8B895" filter="url(#utilitySoftShadow)"/>
      <circle cx="404" cy="914" r="72" fill="#D6B263" opacity="0.14"/>
      <rect x="98" y="920" width="92" height="10" rx="5" fill="#D6B263"/>
      <rect x="98" y="954" width="246" height="26" rx="13" fill="#273223"/>
      <rect x="98" y="1012" width="300" height="10" rx="5" fill="#958D7A"/>
      <rect x="98" y="1040" width="250" height="10" rx="5" fill="#B4AB98"/>
      <rect x="98" y="1086" width="112" height="34" rx="10" fill="#D6B263"/>

      <rect x="518" y="882" width="404" height="262" rx="22" fill="url(#utilityPaperPanel)" stroke="#C8B895" filter="url(#utilitySoftShadow)"/>
      <path d="M552 1090 C626 1016 698 1020 760 958 C800 918 846 912 888 930" stroke="#8D7650" stroke-opacity="0.28" stroke-width="4" stroke-dasharray="10 10"/>
      <rect x="552" y="920" width="92" height="10" rx="5" fill="#D6B263"/>
      <rect x="552" y="954" width="246" height="26" rx="13" fill="#273223"/>
      <rect x="552" y="1012" width="300" height="10" rx="5" fill="#958D7A"/>
      <rect x="552" y="1040" width="250" height="10" rx="5" fill="#B4AB98"/>
      <rect x="552" y="1086" width="112" height="34" rx="10" fill="#D6B263"/>

      <rect x="972" y="882" width="404" height="262" rx="22" fill="url(#utilityPaperPanel)" stroke="#C8B895" filter="url(#utilitySoftShadow)"/>
      <rect x="1258" y="912" width="78" height="162" rx="14" fill="#18211B" opacity="0.10"/>
      <rect x="1006" y="920" width="92" height="10" rx="5" fill="#D6B263"/>
      <rect x="1006" y="954" width="246" height="26" rx="13" fill="#273223"/>
      <rect x="1006" y="1012" width="300" height="10" rx="5" fill="#958D7A"/>
      <rect x="1006" y="1040" width="250" height="10" rx="5" fill="#B4AB98"/>
      <rect x="1006" y="1086" width="112" height="34" rx="10" fill="#D6B263"/>
    </g>
  </g>

  <g id="auth-pages" transform="translate(0 1360)">
    <rect x="0" y="0" width="1440" height="1280" fill="url(#utilityDarkBg)"/>
    <rect x="0" y="0" width="1440" height="1280" fill="url(#utilityGlowGreen)"/>
    <rect x="0" y="0" width="1440" height="1280" fill="url(#utilityRuneGrid)" opacity="0.9"/>
    <use href="#nav-template"/>

    <g id="auth-world-left" filter="url(#utilityDarkShadow)">
      <rect x="64" y="182" width="624" height="934" rx="28" fill="#0B120C" fill-opacity="0.48" stroke="#D6B263" stroke-opacity="0.26"/>
      <rect x="96" y="214" width="560" height="392" rx="22" fill="#172414" stroke="#D6B263" stroke-opacity="0.22"/>
      <rect x="96" y="214" width="560" height="392" rx="22" fill="url(#utilityPixelGrid)" opacity="0.8"/>
      <path d="M96 456 L168 350 L238 394 L310 292 L416 414 L504 340 L656 468 L656 606 L96 606 Z" fill="#263A22"/>
      <path d="M96 520 L190 430 L278 486 L374 394 L462 488 L560 436 L656 514 L656 606 L96 606 Z" fill="#10190F"/>
      <rect x="96" y="588" width="560" height="18" fill="#5E7A40"/>
      <circle cx="526" cy="294" r="52" fill="#D6B263" opacity="0.18"/>
      <rect x="224" y="378" width="104" height="148" rx="12" fill="#5F4E32"/>
      <rect x="250" y="402" width="52" height="88" rx="9" fill="#D6B263" opacity="0.72"/>
      <rect x="236" y="526" width="80" height="18" rx="6" fill="#9AC26B"/>
      <path d="M214 520 C184 456 188 392 236 340 C284 288 356 294 394 354 C438 426 388 516 312 532" stroke="#D6B263" stroke-opacity="0.36" stroke-width="6"/>
      <path d="M240 506 C220 462 228 412 262 378 C296 344 344 352 370 392 C398 438 364 496 312 510" stroke="#9AC26B" stroke-opacity="0.30" stroke-width="5"/>

      <rect x="112" y="678" width="152" height="10" rx="5" fill="#D6B263"/>
      <rect x="112" y="718" width="420" height="46" rx="16" fill="#F3EEDC"/>
      <rect x="112" y="790" width="486" height="12" rx="6" fill="#F3EEDC" opacity="0.58"/>
      <rect x="112" y="820" width="350" height="12" rx="6" fill="#F3EEDC" opacity="0.42"/>
      <rect x="112" y="880" width="142" height="38" rx="11" fill="#D6B263"/>
      <rect x="278" y="880" width="142" height="38" rx="11" fill="#FFFFFF" fill-opacity="0.08" stroke="#D6B263" stroke-opacity="0.30"/>
    </g>

    <g id="auth-form-stack">
      <circle cx="1026" cy="570" r="328" fill="#D6B263" opacity="0.09" filter="url(#utilityGlow)"/>
      <circle cx="1026" cy="570" r="236" fill="none" stroke="#D6B263" stroke-opacity="0.20" stroke-width="2" stroke-dasharray="16 14"/>
      <rect x="740" y="186" width="572" height="780" rx="28" fill="url(#utilityPaperPanel)" stroke="#D6B263" stroke-opacity="0.45" filter="url(#utilitySoftShadow)"/>
      <rect x="762" y="208" width="528" height="736" rx="22" fill="none" stroke="#8D7650" stroke-opacity="0.22"/>
      <rect x="786" y="232" width="118" height="10" rx="5" fill="#D6B263"/>
      <rect x="786" y="270" width="290" height="34" rx="17" fill="#273223"/>
      <rect x="786" y="330" width="404" height="10" rx="5" fill="#958D7A"/>
      <rect x="786" y="358" width="280" height="10" rx="5" fill="#B4AB98"/>

      <rect x="786" y="418" width="480" height="58" rx="14" fill="#FBF8F0" stroke="#C8B895"/>
      <rect x="814" y="442" width="210" height="10" rx="5" fill="#958D7A"/>
      <rect x="786" y="500" width="480" height="58" rx="14" fill="#FBF8F0" stroke="#C8B895"/>
      <rect x="814" y="524" width="180" height="10" rx="5" fill="#958D7A"/>
      <rect x="786" y="588" width="212" height="14" rx="7" fill="#6F8F4E"/>
      <rect x="1118" y="588" width="148" height="14" rx="7" fill="#958D7A"/>
      <rect x="786" y="638" width="480" height="54" rx="14" fill="#D6B263"/>
      <rect x="808" y="654" width="180" height="8" rx="4" fill="#273223" opacity="0.56"/>
      <rect x="1162" y="652" width="24" height="24" rx="7" fill="#273223" opacity="0.24"/>

      <rect x="786" y="742" width="138" height="42" rx="12" fill="#18211B"/>
      <rect x="942" y="742" width="138" height="42" rx="12" fill="#FBF8F0" stroke="#C8B895"/>
      <rect x="1098" y="742" width="138" height="42" rx="12" fill="#FBF8F0" stroke="#C8B895"/>
      <rect x="818" y="810" width="382" height="10" rx="5" fill="#B4AB98"/>
      <rect x="880" y="842" width="258" height="10" rx="5" fill="#B4AB98"/>
    </g>

    <g id="auth-side-variants">
      <rect x="784" y="1012" width="172" height="116" rx="18" fill="#18211B" stroke="#D6B263" stroke-opacity="0.28"/>
      <rect x="810" y="1040" width="78" height="10" rx="5" fill="#D6B263"/>
      <rect x="810" y="1070" width="110" height="8" rx="4" fill="#F3EEDC" opacity="0.54"/>
      <rect x="810" y="1096" width="92" height="8" rx="4" fill="#F3EEDC" opacity="0.36"/>

      <rect x="984" y="1012" width="172" height="116" rx="18" fill="#18211B" stroke="#D6B263" stroke-opacity="0.28"/>
      <rect x="1010" y="1040" width="78" height="10" rx="5" fill="#D6B263"/>
      <rect x="1010" y="1070" width="110" height="8" rx="4" fill="#F3EEDC" opacity="0.54"/>
      <rect x="1010" y="1096" width="92" height="8" rx="4" fill="#F3EEDC" opacity="0.36"/>

      <rect x="1184" y="1012" width="172" height="116" rx="18" fill="#18211B" stroke="#D6B263" stroke-opacity="0.28"/>
      <rect x="1210" y="1040" width="78" height="10" rx="5" fill="#D6B263"/>
      <rect x="1210" y="1070" width="110" height="8" rx="4" fill="#F3EEDC" opacity="0.54"/>
      <rect x="1210" y="1096" width="92" height="8" rx="4" fill="#F3EEDC" opacity="0.36"/>
    </g>
  </g>

  <g id="profile-page" transform="translate(0 2720)">
    <rect x="0" y="0" width="1440" height="1280" fill="url(#utilityPaperBg)"/>
    <rect x="0" y="302" width="1440" height="978" fill="url(#utilityPaperGrid)" opacity="0.76"/>
    <rect x="0" y="0" width="1440" height="302" fill="url(#utilityDarkBg)"/>
    <use href="#nav-template"/>

    <g id="profile-header" filter="url(#utilitySoftShadow)">
      <rect x="64" y="178" width="1312" height="246" rx="28" fill="url(#utilityDarkPanel)" stroke="#D6B263" stroke-opacity="0.34"/>
      <rect x="64" y="178" width="1312" height="246" rx="28" fill="url(#utilityCabinetGrid)" opacity="0.7"/>
      <rect x="104" y="224" width="128" height="128" rx="24" fill="#D6B263"/>
      <rect x="126" y="246" width="84" height="84" rx="18" fill="#9AC26B"/>
      <rect x="88" y="206" width="168" height="168" rx="28" fill="none" stroke="#D6B263" stroke-opacity="0.28" stroke-dasharray="12 10"/>
      <rect x="270" y="230" width="118" height="10" rx="5" fill="#D6B263"/>
      <rect x="270" y="264" width="310" height="36" rx="18" fill="#F3EEDC"/>
      <rect x="270" y="326" width="430" height="10" rx="5" fill="#F3EEDC" opacity="0.50"/>
      <rect x="270" y="354" width="286" height="10" rx="5" fill="#F3EEDC" opacity="0.38"/>
      <rect x="964" y="236" width="108" height="70" rx="16" fill="#0B120C" fill-opacity="0.44" stroke="#D6B263" stroke-opacity="0.26"/>
      <rect x="990" y="256" width="54" height="20" rx="10" fill="#D6B263"/>
      <rect x="990" y="288" width="62" height="8" rx="4" fill="#F3EEDC" opacity="0.44"/>
      <rect x="1096" y="236" width="108" height="70" rx="16" fill="#0B120C" fill-opacity="0.44" stroke="#D6B263" stroke-opacity="0.26"/>
      <rect x="1122" y="256" width="54" height="20" rx="10" fill="#D6B263"/>
      <rect x="1122" y="288" width="62" height="8" rx="4" fill="#F3EEDC" opacity="0.44"/>
      <rect x="1228" y="236" width="108" height="70" rx="16" fill="#0B120C" fill-opacity="0.44" stroke="#D6B263" stroke-opacity="0.26"/>
      <rect x="1254" y="256" width="54" height="20" rx="10" fill="#D6B263"/>
      <rect x="1254" y="288" width="62" height="8" rx="4" fill="#F3EEDC" opacity="0.44"/>
      <path d="M740 344 H1328" stroke="#D6B263" stroke-opacity="0.22" stroke-width="4" stroke-dasharray="12 14"/>
    </g>

    <g id="profile-layout">
      <rect x="64" y="478" width="304" height="602" rx="24" fill="url(#utilityPaperPanel)" stroke="#C8B895"/>
      <rect x="84" y="498" width="264" height="562" rx="18" fill="#FFFFFF" fill-opacity="0.24" stroke="#C8B895" stroke-opacity="0.54"/>
      <rect x="96" y="516" width="144" height="10" rx="5" fill="#D6B263"/>
      <rect x="96" y="556" width="216" height="44" rx="12" fill="#18211B"/>
      <rect x="118" y="574" width="120" height="8" rx="4" fill="#F3EEDC" opacity="0.58"/>
      <rect x="96" y="622" width="216" height="44" rx="12" fill="#EFE2C5" stroke="#C5B493"/>
      <rect x="118" y="640" width="140" height="8" rx="4" fill="#7E8675"/>
      <rect x="96" y="688" width="216" height="44" rx="12" fill="#EFE2C5" stroke="#C5B493"/>
      <rect x="118" y="706" width="110" height="8" rx="4" fill="#7E8675"/>
      <rect x="96" y="754" width="216" height="44" rx="12" fill="#EFE2C5" stroke="#C5B493"/>
      <rect x="118" y="772" width="134" height="8" rx="4" fill="#7E8675"/>
      <line x1="96" y1="840" x2="312" y2="840" stroke="#C8B895" stroke-dasharray="6 6"/>
      <rect x="96" y="880" width="216" height="102" rx="16" fill="#FBF8F0" stroke="#C8B895"/>
      <rect x="118" y="908" width="102" height="10" rx="5" fill="#273223"/>
      <rect x="118" y="938" width="148" height="8" rx="4" fill="#958D7A"/>

      <rect x="408" y="478" width="968" height="602" rx="24" fill="#FBF8F0" fill-opacity="0.74" stroke="#D0C4AC"/>
      <rect x="430" y="632" width="898" height="222" rx="22" fill="url(#utilityCabinetGrid)" opacity="0.42"/>
      <rect x="444" y="516" width="186" height="24" rx="12" fill="#273223"/>
      <rect x="444" y="562" width="420" height="10" rx="5" fill="#958D7A"/>
      <rect x="444" y="594" width="306" height="10" rx="5" fill="#B4AB98"/>
      <rect x="1116" y="514" width="148" height="38" rx="11" fill="#D6B263"/>

      <rect x="444" y="658" width="414" height="150" rx="18" fill="#FFFFFF" stroke="#D0C4AC"/>
      <rect x="444" y="658" width="414" height="38" rx="18" fill="#18211B" opacity="0.08"/>
      <rect x="474" y="694" width="92" height="92" rx="16" fill="#8FAE72"/>
      <rect x="602" y="700" width="160" height="16" rx="8" fill="#273223"/>
      <rect x="602" y="736" width="192" height="8" rx="4" fill="#958D7A"/>
      <rect x="602" y="762" width="126" height="8" rx="4" fill="#B4AB98"/>
      <rect x="892" y="658" width="414" height="150" rx="18" fill="#FFFFFF" stroke="#D0C4AC"/>
      <rect x="892" y="658" width="414" height="38" rx="18" fill="#18211B" opacity="0.08"/>
      <rect x="922" y="694" width="92" height="92" rx="16" fill="#8FAE72"/>
      <rect x="1050" y="700" width="160" height="16" rx="8" fill="#273223"/>
      <rect x="1050" y="736" width="192" height="8" rx="4" fill="#958D7A"/>
      <rect x="1050" y="762" width="126" height="8" rx="4" fill="#B4AB98"/>

      <rect x="444" y="846" width="862" height="154" rx="18" fill="url(#utilityPaperPanel)" stroke="#C8B895"/>
      <rect x="474" y="884" width="132" height="10" rx="5" fill="#D6B263"/>
      <rect x="474" y="922" width="400" height="12" rx="6" fill="#273223"/>
      <rect x="474" y="956" width="560" height="8" rx="4" fill="#958D7A"/>
      <rect x="474" y="980" width="340" height="8" rx="4" fill="#B4AB98"/>
      <rect x="1154" y="906" width="96" height="38" rx="11" fill="#6F8F4E"/>
      <rect x="444" y="1034" width="862" height="70" rx="18" fill="#18211B" stroke="#D6B263" stroke-opacity="0.28"/>
      <rect x="474" y="1060" width="92" height="10" rx="5" fill="#D6B263"/>
      <rect x="604" y="1054" width="156" height="28" rx="9" fill="#FFFFFF" fill-opacity="0.06" stroke="#D6B263" stroke-opacity="0.18"/>
      <rect x="790" y="1054" width="156" height="28" rx="9" fill="#FFFFFF" fill-opacity="0.06" stroke="#D6B263" stroke-opacity="0.18"/>
      <rect x="976" y="1054" width="156" height="28" rx="9" fill="#FFFFFF" fill-opacity="0.06" stroke="#D6B263" stroke-opacity="0.18"/>
    </g>
  </g>

  <g id="writing-workspace" transform="translate(0 4080)">
    <rect x="0" y="0" width="1440" height="1420" fill="url(#utilityPaperBg)"/>
    <rect x="0" y="0" width="1440" height="1420" fill="url(#utilityPaperGrid)" opacity="0.64"/>
    <rect x="0" y="0" width="1440" height="148" fill="#0B120C"/>
    <use href="#nav-template"/>

    <g id="writing-shell" filter="url(#utilitySoftShadow)">
      <rect x="64" y="184" width="1312" height="1058" rx="26" fill="#FBF8F0" stroke="#D0C4AC"/>
      <rect x="64" y="184" width="1312" height="76" rx="26" fill="url(#utilityDarkPanel)"/>
      <rect x="64" y="184" width="1312" height="76" rx="26" fill="url(#utilityRuneGrid)" opacity="0.42"/>
      <rect x="104" y="214" width="170" height="16" rx="8" fill="#F3EEDC"/>
      <rect x="1000" y="208" width="96" height="34" rx="10" fill="#FFFFFF" fill-opacity="0.08" stroke="#D6B263" stroke-opacity="0.28"/>
      <rect x="1114" y="208" width="96" height="34" rx="10" fill="#FFFFFF" fill-opacity="0.08" stroke="#D6B263" stroke-opacity="0.28"/>
      <rect x="1228" y="208" width="96" height="34" rx="10" fill="#D6B263"/>

      <rect x="96" y="298" width="276" height="884" rx="20" fill="url(#utilityPaperPanel)" stroke="#C8B895"/>
      <rect x="116" y="320" width="236" height="200" rx="16" fill="#18211B" fill-opacity="0.08" stroke="#C8B895" stroke-opacity="0.46"/>
      <rect x="126" y="336" width="128" height="10" rx="5" fill="#D6B263"/>
      <rect x="126" y="374" width="198" height="38" rx="11" fill="#18211B"/>
      <rect x="148" y="390" width="106" height="8" rx="4" fill="#F3EEDC" opacity="0.58"/>
      <rect x="126" y="432" width="198" height="38" rx="11" fill="#EFE2C5" stroke="#C5B493"/>
      <rect x="148" y="448" width="126" height="8" rx="4" fill="#7E8675"/>
      <rect x="126" y="490" width="198" height="38" rx="11" fill="#EFE2C5" stroke="#C5B493"/>
      <rect x="148" y="506" width="116" height="8" rx="4" fill="#7E8675"/>
      <line x1="126" y1="566" x2="324" y2="566" stroke="#C8B895" stroke-dasharray="6 6"/>
      <rect x="126" y="606" width="198" height="132" rx="16" fill="#FBF8F0" stroke="#C8B895"/>
      <rect x="148" y="634" width="104" height="10" rx="5" fill="#273223"/>
      <rect x="148" y="666" width="132" height="8" rx="4" fill="#958D7A"/>
      <rect x="148" y="692" width="104" height="8" rx="4" fill="#B4AB98"/>
      <rect x="126" y="774" width="198" height="132" rx="16" fill="#FBF8F0" stroke="#C8B895"/>
      <rect x="148" y="802" width="104" height="10" rx="5" fill="#273223"/>
      <rect x="148" y="834" width="132" height="8" rx="4" fill="#958D7A"/>
      <rect x="148" y="860" width="104" height="8" rx="4" fill="#B4AB98"/>
      <path d="M126 964 H324" stroke="#8D7650" stroke-opacity="0.32" stroke-width="3" stroke-dasharray="9 9"/>
      <rect x="126" y="1006" width="198" height="96" rx="16" fill="#18211B" fill-opacity="0.10" stroke="#C8B895"/>
      <rect x="148" y="1034" width="74" height="10" rx="5" fill="#D6B263"/>
      <rect x="148" y="1064" width="132" height="8" rx="4" fill="#958D7A"/>

      <rect x="410" y="298" width="598" height="884" rx="20" fill="#FFFFFF" stroke="#D0C4AC"/>
      <rect x="434" y="322" width="550" height="836" rx="14" fill="none" stroke="#C8B895" stroke-opacity="0.54"/>
      <rect x="434" y="322" width="550" height="70" rx="14" fill="#F4E9CF" opacity="0.78"/>
      <rect x="452" y="346" width="382" height="42" rx="16" fill="#273223"/>
      <rect x="452" y="424" width="486" height="12" rx="6" fill="#958D7A"/>
      <rect x="452" y="456" width="392" height="12" rx="6" fill="#B4AB98"/>
      <rect x="452" y="520" width="228" height="22" rx="11" fill="#D6B263"/>
      <rect x="452" y="584" width="492" height="10" rx="5" fill="#273223" opacity="0.74"/>
      <rect x="452" y="620" width="468" height="10" rx="5" fill="#958D7A"/>
      <rect x="452" y="650" width="510" height="10" rx="5" fill="#958D7A"/>
      <rect x="452" y="680" width="398" height="10" rx="5" fill="#958D7A"/>
      <rect x="452" y="746" width="514" height="168" rx="18" fill="#F4E9CF" stroke="#C8B895"/>
      <path d="M480 902 H940" stroke="#8D7650" stroke-opacity="0.24" stroke-width="3" stroke-dasharray="8 8"/>
      <rect x="486" y="782" width="130" height="10" rx="5" fill="#D6B263"/>
      <rect x="486" y="820" width="356" height="10" rx="5" fill="#958D7A"/>
      <rect x="486" y="852" width="282" height="10" rx="5" fill="#B4AB98"/>
      <rect x="452" y="960" width="492" height="10" rx="5" fill="#958D7A"/>
      <rect x="452" y="990" width="444" height="10" rx="5" fill="#958D7A"/>
      <rect x="452" y="1020" width="368" height="10" rx="5" fill="#958D7A"/>

      <rect x="1046" y="298" width="298" height="884" rx="20" fill="url(#utilityDarkPanel)" stroke="#D6B263" stroke-opacity="0.30"/>
      <rect x="1066" y="318" width="258" height="844" rx="16" fill="url(#utilityRuneGrid)" opacity="0.34"/>
      <rect x="1076" y="336" width="112" height="10" rx="5" fill="#D6B263"/>
      <rect x="1076" y="374" width="210" height="44" rx="13" fill="#FBF8F0" fill-opacity="0.12" stroke="#D6B263" stroke-opacity="0.22"/>
      <rect x="1076" y="446" width="210" height="44" rx="13" fill="#FBF8F0" fill-opacity="0.12" stroke="#D6B263" stroke-opacity="0.22"/>
      <rect x="1076" y="518" width="210" height="44" rx="13" fill="#FBF8F0" fill-opacity="0.12" stroke="#D6B263" stroke-opacity="0.22"/>
      <line x1="1076" y1="606" x2="1286" y2="606" stroke="#D6B263" stroke-opacity="0.22" stroke-dasharray="6 6"/>
      <rect x="1076" y="646" width="210" height="126" rx="16" fill="#0B120C" fill-opacity="0.34" stroke="#D6B263" stroke-opacity="0.18"/>
      <rect x="1100" y="676" width="92" height="10" rx="5" fill="#D6B263"/>
      <rect x="1100" y="710" width="132" height="8" rx="4" fill="#F3EEDC" opacity="0.48"/>
      <rect x="1100" y="736" width="102" height="8" rx="4" fill="#F3EEDC" opacity="0.34"/>
      <rect x="1076" y="812" width="210" height="126" rx="16" fill="#0B120C" fill-opacity="0.34" stroke="#D6B263" stroke-opacity="0.18"/>
      <rect x="1100" y="842" width="92" height="10" rx="5" fill="#D6B263"/>
      <rect x="1100" y="876" width="132" height="8" rx="4" fill="#F3EEDC" opacity="0.48"/>
      <rect x="1100" y="902" width="102" height="8" rx="4" fill="#F3EEDC" opacity="0.34"/>
      <rect x="1076" y="984" width="210" height="92" rx="16" fill="#D6B263" fill-opacity="0.16" stroke="#D6B263" stroke-opacity="0.28"/>
      <rect x="1100" y="1016" width="118" height="10" rx="5" fill="#F3EEDC" opacity="0.62"/>
      <rect x="1100" y="1046" width="84" height="8" rx="4" fill="#F3EEDC" opacity="0.38"/>
    </g>
  </g>

  <g id="not-found-page" transform="translate(0 5620)">
    <rect x="0" y="0" width="1440" height="1200" fill="url(#utilityDarkBg)"/>
    <rect x="0" y="0" width="1440" height="1200" fill="url(#utilityGlowGold)"/>
    <rect x="0" y="0" width="1440" height="1200" fill="url(#utilityGlowGreen)"/>
    <rect x="0" y="0" width="1440" height="1200" fill="url(#utilityRuneGrid)" opacity="0.46"/>
    <use href="#nav-template"/>

    <g id="lost-world" filter="url(#utilityDarkShadow)">
      <rect x="120" y="198" width="1200" height="780" rx="32" fill="#0B120C" fill-opacity="0.48" stroke="#D6B263" stroke-opacity="0.30"/>
      <rect x="160" y="238" width="1120" height="418" rx="24" fill="#162115" stroke="#D6B263" stroke-opacity="0.20"/>
      <rect x="160" y="238" width="1120" height="418" rx="24" fill="url(#utilityPixelGrid)" opacity="0.88"/>
      <circle cx="1100" cy="330" r="82" fill="#D6B263" opacity="0.16"/>
      <path d="M220 340 C360 260 502 306 626 380 C782 472 926 448 1110 330" stroke="#D6B263" stroke-opacity="0.24" stroke-width="4" stroke-dasharray="12 14"/>
      <rect x="354" y="292" width="18" height="18" rx="5" fill="#D6B263" filter="url(#utilityGlow)"/>
      <rect x="772" y="426" width="16" height="16" rx="5" fill="#9AC26B" filter="url(#utilityGlow)"/>
      <path d="M160 492 L272 332 L392 414 L528 282 L672 442 L814 346 L968 456 L1106 352 L1280 498 L1280 656 L160 656 Z" fill="#2A4024"/>
      <path d="M160 570 L306 474 L452 522 L604 430 L746 536 L894 486 L1048 542 L1186 488 L1280 560 L1280 656 L160 656 Z" fill="#10190F"/>
      <rect x="160" y="630" width="1120" height="26" fill="#5E7A40"/>
      <rect x="160" y="656" width="1120" height="84" fill="#4A3323"/>
      <rect x="160" y="656" width="1120" height="84" fill="url(#utilityPixelGrid)" opacity="0.72"/>

      <g id="broken-codex" transform="translate(540 290) rotate(-6 180 210)">
        <rect x="0" y="0" width="360" height="420" rx="22" fill="#E9D3A3" stroke="#D6B263" stroke-width="2" opacity="0.94"/>
        <rect x="22" y="22" width="316" height="376" rx="16" stroke="#5F4E32" stroke-opacity="0.34"/>
        <rect x="174" y="0" width="10" height="420" rx="5" fill="#5F4E32" opacity="0.20"/>
        <path d="M48 74 L146 74 L126 118 L68 118 Z" fill="#5C4329" opacity="0.74"/>
        <path d="M214 74 L306 74 L286 118 L234 118 Z" fill="#5C4329" opacity="0.58"/>
        <rect x="86" y="176" width="70" height="70" rx="12" fill="#9AC26B"/>
        <rect x="206" y="176" width="70" height="70" rx="12" fill="#D6B263"/>
        <rect x="110" y="282" width="140" height="12" rx="6" fill="#8D7650" opacity="0.56"/>
        <rect x="136" y="312" width="88" height="12" rx="6" fill="#8D7650" opacity="0.46"/>
      </g>
      <rect x="498" y="292" width="444" height="430" rx="28" fill="none" stroke="#D6B263" stroke-opacity="0.18" stroke-dasharray="18 14"/>

      <rect x="260" y="790" width="130" height="12" rx="6" fill="#D6B263"/>
      <rect x="260" y="830" width="500" height="54" rx="18" fill="#F3EEDC"/>
      <rect x="260" y="918" width="560" height="12" rx="6" fill="#F3EEDC" opacity="0.54"/>
      <rect x="260" y="948" width="390" height="12" rx="6" fill="#F3EEDC" opacity="0.38"/>
      <rect x="940" y="812" width="154" height="48" rx="14" fill="#D6B263"/>
      <rect x="1116" y="812" width="154" height="48" rx="14" fill="#FFFFFF" fill-opacity="0.08" stroke="#D6B263" stroke-opacity="0.32"/>
      <rect x="260" y="1008" width="1010" height="84" rx="22" fill="#0F1711" fill-opacity="0.72" stroke="#D6B263" stroke-opacity="0.28"/>
      <rect x="296" y="1040" width="112" height="10" rx="5" fill="#D6B263"/>
      <rect x="452" y="1032" width="176" height="34" rx="10" fill="#FFFFFF" fill-opacity="0.06" stroke="#D6B263" stroke-opacity="0.20"/>
      <rect x="660" y="1032" width="176" height="34" rx="10" fill="#FFFFFF" fill-opacity="0.06" stroke="#D6B263" stroke-opacity="0.20"/>
      <rect x="868" y="1032" width="176" height="34" rx="10" fill="#FFFFFF" fill-opacity="0.06" stroke="#D6B263" stroke-opacity="0.20"/>
    </g>
  </g>
</svg>
